<svg width="132" height="169" viewBox="0 0 132 169" fill="none" xmlns="http://www.w3.org/2000/svg">
<path d="M121.01 168.761H10.8995C9.93607 168.761 9.16064 167.985 9.16064 167.021C9.16064 166.057 9.93607 165.281 10.8995 165.281H121.01C121.973 165.281 122.749 166.057 122.749 167.021C122.749 167.985 121.973 168.761 121.01 168.761Z" fill="#D7DDF2"/>
<path d="M46.0755 32.116H16.8208V103.366H46.0755V32.116Z" stroke="#A0DDF2" stroke-width="2.45958" stroke-miterlimit="10"/>
<path d="M111.188 32.116H50.2588V103.366H111.188V32.116Z" stroke="#A0DDF2" stroke-width="2.45958" stroke-miterlimit="10"/>
<path d="M117.345 110.75H11.6987C10.2418 110.75 9.04346 109.551 9.04346 108.093V26.0967H120V108.07C120 109.551 118.825 110.75 117.345 110.75Z" stroke="#A0DDF2" stroke-width="2.45958" stroke-miterlimit="10"/>
<path d="M117.345 18.0542H11.6987C10.2418 18.0542 9.04346 19.2535 9.04346 20.7114V26.1198H120V20.7114C120 19.2299 118.825 18.0542 117.345 18.0542Z" stroke="#A0DDF2" stroke-width="2.45958" stroke-miterlimit="10"/>
<path d="M126.58 65.8599H95.8211C95.4451 65.8599 95.1396 65.5543 95.1396 65.178V39.8055C95.1396 39.4292 95.4451 39.1235 95.8211 39.1235H126.58C126.956 39.1235 127.261 39.4292 127.261 39.8055V65.1545C127.261 65.5543 126.956 65.8599 126.58 65.8599Z" fill="#E0E7FF"/>
<path d="M122.632 53.7262H121.763C121.622 52.9502 121.34 52.2918 120.94 51.6804L121.551 51.069C121.692 50.9279 121.692 50.6928 121.551 50.5517L120.212 49.2113C120.071 49.0702 119.836 49.0702 119.695 49.2113L119.084 49.8227C118.449 49.423 117.768 49.1173 117.04 48.9527V48.0826C117.04 47.8945 116.875 47.6829 116.687 47.6829H114.807C114.619 47.6829 114.431 47.871 114.431 48.0826V48.9527C113.703 49.0938 112.998 49.3759 112.387 49.7757L111.776 49.1643C111.635 49.0232 111.4 49.0232 111.259 49.1643L109.92 50.5046C109.779 50.6457 109.779 50.8809 109.92 51.022L110.531 51.6569C110.131 52.2918 109.826 52.9032 109.661 53.7262H108.792C108.604 53.7262 108.439 53.8438 108.439 54.0554V55.9366C108.439 56.1247 108.604 56.2658 108.792 56.2658H109.661C109.802 56.9947 110.084 57.7237 110.484 58.3351L109.873 58.97C109.732 59.1111 109.732 59.3462 109.873 59.4873L111.212 60.8277C111.353 60.9688 111.588 60.9688 111.729 60.8277L112.34 60.2163C112.975 60.616 113.656 60.9217 114.384 61.0863V61.9564C114.384 62.1445 114.549 62.3561 114.76 62.3561H116.64C116.828 62.3561 116.993 62.168 116.993 61.9564V61.0863C117.721 60.9452 118.426 60.6631 119.037 60.2633L119.648 60.8747C119.789 61.0158 120.024 61.0158 120.165 60.8747L121.504 59.5344C121.645 59.3933 121.645 59.1581 121.504 59.017L120.893 58.4292C121.293 57.7943 121.598 57.0888 121.763 56.4069H122.632C122.82 56.4069 122.985 56.1952 122.985 56.0071V54.1259C122.985 53.8908 122.844 53.7262 122.632 53.7262ZM115.724 58.1235C114.008 58.1235 112.599 56.7126 112.599 54.996C112.599 53.2794 114.008 51.8685 115.724 51.8685C117.439 51.8685 118.849 53.2794 118.849 54.996C118.849 56.7126 117.439 58.1235 115.724 58.1235Z" fill="#56CBF2"/>
<path d="M110.084 47.3306H109.473C109.355 46.7898 109.167 46.3195 108.885 45.8727L109.332 45.4259C109.426 45.3319 109.426 45.1673 109.332 45.0732L108.368 44.1091C108.274 44.015 108.11 44.015 107.992 44.1091L107.569 44.5324C107.123 44.2502 106.629 44.0386 106.113 43.921V43.2861C106.113 43.145 105.995 43.0039 105.854 43.0039H104.491C104.35 43.0039 104.233 43.145 104.233 43.2861V43.8975C103.716 44.015 103.222 44.2032 102.776 44.4853L102.329 44.0386C102.235 43.9445 102.071 43.9445 101.977 44.0386L101.014 45.0027C100.92 45.0967 100.92 45.2613 101.014 45.3789L101.436 45.8257C101.154 46.2725 100.943 46.7193 100.826 47.3071H100.191C100.05 47.3071 99.9326 47.4012 99.9326 47.5423V48.8826C99.9326 49.0237 100.05 49.1178 100.191 49.1178H100.802C100.92 49.6351 101.107 50.1524 101.389 50.5992L100.943 51.046C100.849 51.1401 100.849 51.3047 100.943 51.4222L101.906 52.3863C102 52.4804 102.165 52.4804 102.282 52.3863L102.705 51.9631C103.152 52.2452 103.645 52.4569 104.162 52.5745V53.2094C104.162 53.3504 104.28 53.4915 104.421 53.4915H105.76C105.901 53.4915 106.019 53.3504 106.019 53.2094V52.598C106.535 52.4804 107.029 52.2923 107.475 52.0101L107.922 52.4569C108.016 52.5509 108.18 52.5509 108.298 52.4569L109.261 51.4928C109.355 51.3987 109.355 51.2341 109.261 51.1165L108.838 50.6933C109.12 50.2465 109.332 49.7292 109.449 49.2589H110.084C110.225 49.2589 110.319 49.1178 110.319 48.9767V47.6363C110.319 47.4482 110.225 47.3306 110.084 47.3306ZM105.126 50.4581C103.904 50.4581 102.893 49.4705 102.893 48.2242C102.893 47.0014 103.88 45.9903 105.126 45.9903C106.371 45.9903 107.358 46.9779 107.358 48.2242C107.358 49.447 106.371 50.4581 105.126 50.4581Z" fill="#6956F2"/>
<path d="M101.108 59.0639H100.638C100.544 59.0639 100.45 58.9698 100.45 58.8758V58.3114C100.45 58.2173 100.544 58.1233 100.638 58.1233H101.108C101.202 58.1233 101.296 58.2173 101.296 58.3114V58.8758C101.296 58.9933 101.202 59.0639 101.108 59.0639Z" fill="#B0C2FF"/>
<path d="M101.108 60.9443H100.638C100.544 60.9443 100.45 60.8502 100.45 60.7561V60.1918C100.45 60.0977 100.544 60.0037 100.638 60.0037H101.108C101.202 60.0037 101.296 60.0977 101.296 60.1918V60.7561C101.296 60.8737 101.202 60.9443 101.108 60.9443Z" fill="#B0C2FF"/>
<path d="M105.197 59.0639H102.166C101.908 59.0639 101.696 58.8523 101.696 58.5936C101.696 58.3349 101.908 58.1233 102.166 58.1233H105.197C105.456 58.1233 105.667 58.3349 105.667 58.5936C105.667 58.8523 105.456 59.0639 105.197 59.0639Z" fill="#B0C2FF"/>
<path d="M106.794 60.9452H102.142C101.883 60.9452 101.672 60.7336 101.672 60.4749C101.672 60.2163 101.883 60.0046 102.142 60.0046H106.794C107.053 60.0046 107.264 60.2163 107.264 60.4749C107.288 60.7336 107.076 60.9452 106.794 60.9452Z" fill="#B0C2FF"/>
<path d="M15.3174 23.4156C16.0571 23.4156 16.6568 22.8155 16.6568 22.0752C16.6568 21.335 16.0571 20.7349 15.3174 20.7349C14.5777 20.7349 13.978 21.335 13.978 22.0752C13.978 22.8155 14.5777 23.4156 15.3174 23.4156Z" stroke="#A0DDF2" stroke-width="2.45958" stroke-miterlimit="10"/>
<path d="M21.9434 23.4156C22.6831 23.4156 23.2827 22.8155 23.2827 22.0752C23.2827 21.335 22.6831 20.7349 21.9434 20.7349C21.2037 20.7349 20.604 21.335 20.604 22.0752C20.604 22.8155 21.2037 23.4156 21.9434 23.4156Z" stroke="#A0DDF2" stroke-width="2.45958" stroke-miterlimit="10"/>
<path d="M28.6406 23.4156C29.3804 23.4156 29.98 22.8155 29.98 22.0752C29.98 21.335 29.3804 20.7349 28.6406 20.7349C27.9009 20.7349 27.3013 21.335 27.3013 22.0752C27.3013 22.8155 27.9009 23.4156 28.6406 23.4156Z" stroke="#A0DDF2" stroke-width="2.45958" stroke-miterlimit="10"/>
<path d="M39.8958 68.6579H2.11145C1.03055 68.6579 0.161133 67.7879 0.161133 66.7062V40.4871C0.161133 39.4055 1.03055 38.5354 2.11145 38.5354H39.8958C40.9767 38.5354 41.8461 39.4055 41.8461 40.4871V66.7062C41.8696 67.7879 40.9767 68.6579 39.8958 68.6579Z" fill="#E0EFFF"/>
<path d="M5.16623 43.4502H4.55529C4.4143 43.4502 4.32031 43.3327 4.32031 43.2151V42.4861C4.32031 42.345 4.4378 42.251 4.55529 42.251H5.16623C5.30722 42.251 5.40121 42.3686 5.40121 42.4861V43.2151C5.42471 43.3562 5.30722 43.4502 5.16623 43.4502Z" fill="#A1CEFF"/>
<path d="M5.16623 45.8721H4.55529C4.4143 45.8721 4.32031 45.7545 4.32031 45.637V44.908C4.32031 44.7669 4.4378 44.6729 4.55529 44.6729H5.16623C5.30722 44.6729 5.40121 44.7904 5.40121 44.908V45.637C5.42471 45.7781 5.30722 45.8721 5.16623 45.8721Z" fill="#A1CEFF"/>
<path d="M10.4535 43.451H6.55284C6.22387 43.451 5.94189 43.1689 5.94189 42.8397C5.94189 42.5105 6.22387 42.2283 6.55284 42.2283H10.4535C10.7824 42.2283 11.0644 42.5105 11.0644 42.8397C11.0644 43.1924 10.7824 43.451 10.4535 43.451Z" fill="#A1CEFF"/>
<path d="M11.1114 45.8727H6.55284C6.22387 45.8727 5.94189 45.5905 5.94189 45.2613C5.94189 44.9321 6.22387 44.6499 6.55284 44.6499H11.1114C11.4404 44.6499 11.7223 44.9321 11.7223 45.2613C11.7223 45.614 11.4639 45.8727 11.1114 45.8727Z" fill="#A1CEFF"/>
<path d="M28.2723 61.9588C32.2824 57.9458 32.2824 51.4395 28.2723 47.4265C24.2623 43.4135 17.7607 43.4135 13.7506 47.4265C9.74055 51.4395 9.74054 57.9458 13.7506 61.9588C17.7607 65.9718 24.2623 65.9718 28.2723 61.9588Z" fill="#7499F7"/>
<path d="M21.0044 44.4148V54.6908H31.2729C31.2729 49.0002 26.6908 44.4148 21.0044 44.4148Z" fill="#6956F2"/>
<path d="M25.469 63.9555C28.9231 62.286 31.2964 58.7823 31.2964 54.6907H21.0044L25.469 63.9555Z" fill="#56CBF2"/>
<path d="M21.0039 59.84C23.846 59.84 26.1499 57.5344 26.1499 54.6903C26.1499 51.8461 23.846 49.5405 21.0039 49.5405C18.1619 49.5405 15.8579 51.8461 15.8579 54.6903C15.8579 57.5344 18.1619 59.84 21.0039 59.84Z" fill="#E0EFFF"/>
<path d="M35.3139 43.074H28.5466C27.8652 43.074 27.3247 43.6148 27.3247 44.2967V47.871C27.3247 48.5059 27.8182 49.0232 28.4291 49.0938V50.4576C28.4291 50.8339 28.9226 50.9985 29.1575 50.6928L30.2619 49.1173H35.3139C35.9954 49.1173 36.5358 48.5765 36.5358 47.8945V44.3203C36.5593 43.6383 35.9954 43.074 35.3139 43.074Z" fill="#FFC900"/>
<path d="M86.9863 43.0737H59.4234C58.6715 43.0737 58.0605 42.4624 58.0605 41.7099V22.5453C58.0605 21.7928 58.6715 21.1814 59.4234 21.1814H86.9863C87.7382 21.1814 88.3491 21.7928 88.3491 22.5453V41.7099C88.3491 42.4624 87.7382 43.0737 86.9863 43.0737Z" fill="#B8F8FF"/>
<path d="M76.1925 39.6057C80.1072 38.1425 82.0953 33.7806 80.6332 29.8631C79.171 25.9456 74.8123 23.956 70.8977 25.4192C66.983 26.8824 64.9949 31.2444 66.457 35.1619C67.9191 39.0793 72.2779 41.0689 76.1925 39.6057Z" fill="#56CBF2"/>
<path d="M72.7242 36.3255C72.4657 36.3255 72.2073 36.2314 72.0193 36.0198L69.364 33.3626C68.9646 32.9629 68.9646 32.328 69.364 31.9282C69.7635 31.5284 70.398 31.5284 70.7974 31.9282L72.6302 33.7624L76.2019 29.0594C76.5309 28.6126 77.1653 28.5421 77.6118 28.8713C78.0582 29.2005 78.1287 29.8354 77.7997 30.2822L73.5232 35.9022C73.3587 36.1374 73.0767 36.2785 72.7947 36.302C72.7712 36.3255 72.7477 36.3255 72.7242 36.3255Z" fill="white"/>
<path d="M61.3733 24.5448H60.9033C60.8093 24.5448 60.7153 24.4507 60.7153 24.3566V23.8158C60.7153 23.7217 60.8093 23.6277 60.9033 23.6277H61.3733C61.4673 23.6277 61.5612 23.7217 61.5612 23.8158V24.3566C61.5612 24.4742 61.4673 24.5448 61.3733 24.5448Z" fill="#89E6F0"/>
<path d="M61.3733 26.356H60.9033C60.8093 26.356 60.7153 26.262 60.7153 26.1679V25.6271C60.7153 25.533 60.8093 25.439 60.9033 25.439H61.3733C61.4673 25.439 61.5612 25.533 61.5612 25.6271V26.1679C61.5612 26.2855 61.4673 26.356 61.3733 26.356Z" fill="#89E6F0"/>
<path d="M65.3216 24.5437H62.4079C62.1494 24.5437 61.9614 24.3321 61.9614 24.0969C61.9614 23.8383 62.1729 23.6501 62.4079 23.6501H65.3216C65.5801 23.6501 65.7681 23.8618 65.7681 24.0969C65.7681 24.3556 65.5566 24.5437 65.3216 24.5437Z" fill="#89E6F0"/>
<path d="M65.815 26.3547H62.4079C62.1494 26.3547 61.9614 26.1431 61.9614 25.908C61.9614 25.6493 62.1729 25.4612 62.4079 25.4612H65.815C66.0735 25.4612 66.2615 25.6728 66.2615 25.908C66.2615 26.1666 66.0735 26.3547 65.815 26.3547Z" fill="#89E6F0"/>
<path d="M111.893 144.353C111.893 144.353 109.567 129.303 105.877 133.324C102.212 137.345 103.551 155.381 103.551 155.381C103.551 155.381 101.554 149.361 98.8751 150.702C96.1963 152.042 98.8751 162.389 98.8751 162.389C98.8751 162.389 95.5384 160.39 94.199 162.389C92.8597 164.387 98.0057 166.739 98.0057 166.739H121.785C121.785 166.739 127.26 166.08 129.258 162.718C131.255 159.379 122.584 162.718 122.584 162.718C122.584 162.718 134.263 147.339 131.607 142.66C128.952 137.98 120.916 148.679 120.916 148.679C120.916 148.679 128.929 125.611 122.913 121.943C116.898 118.275 111.893 136.663 111.893 144.353Z" fill="#AFD0F9"/>
<path d="M111.023 166.904C111 166.904 111 166.904 110.977 166.904C110.883 166.88 110.836 166.786 110.859 166.692L119.906 130.761C119.929 130.667 120.023 130.62 120.117 130.644C120.211 130.667 120.258 130.761 120.235 130.855L111.188 166.786C111.164 166.857 111.094 166.904 111.023 166.904Z" fill="#D0E2FC"/>
<path d="M113.796 154.44C112.245 154.44 110.929 153.876 109.825 152.771C108.25 151.172 107.193 148.468 106.723 144.752C106.371 142.001 106.464 139.673 106.464 139.649C106.464 139.555 106.535 139.485 106.629 139.485C106.723 139.485 106.793 139.555 106.793 139.649C106.793 139.744 106.418 148.82 110.06 152.512C111.117 153.594 112.433 154.111 113.96 154.064C114.054 154.064 114.125 154.135 114.125 154.229C114.125 154.323 114.054 154.393 113.96 154.393C113.937 154.44 113.866 154.44 113.796 154.44Z" fill="#D0E2FC"/>
<path d="M112.692 162.413C112.504 162.413 112.316 162.413 112.151 162.389C112.057 162.389 111.987 162.295 112.01 162.201C112.01 162.107 112.104 162.036 112.198 162.06C118.942 162.859 127.707 146.775 127.801 146.611C127.848 146.54 127.942 146.493 128.036 146.54C128.106 146.587 128.153 146.681 128.106 146.775C128.083 146.822 125.851 150.914 122.819 154.888C118.919 159.873 115.535 162.413 112.692 162.413Z" fill="#D0E2FC"/>
<path d="M96.2673 153.806C96.2673 153.806 92.6017 135.089 87.5732 138.098C82.5681 141.108 87.5732 160.485 87.5732 160.485C87.5732 160.485 82.8971 154.465 80.8998 156.464C78.9025 158.462 86.3513 166.834 86.3513 166.834H102.377C102.377 166.834 108.298 152.466 104.609 149.456C100.943 146.446 96.2673 153.806 96.2673 153.806Z" fill="#7499F7"/>
<path d="M93.1893 166.998C93.1188 166.998 93.0483 166.951 93.0248 166.857L88.7482 142.801C88.7247 142.707 88.7952 142.613 88.8892 142.613C88.9832 142.59 89.0772 142.66 89.0772 142.754L93.3538 166.81C93.3773 166.904 93.3068 166.998 93.2128 166.998C93.2128 166.998 93.2128 166.998 93.1893 166.998Z" fill="#D0E2FC"/>
<path d="M93.0956 164.224C92.9546 164.224 92.8136 164.224 92.6726 164.2C89.3125 163.918 86.9862 162.625 85.6233 161.59C84.143 160.461 83.485 159.427 83.438 159.38C83.391 159.309 83.4145 159.192 83.485 159.144C83.5555 159.097 83.673 159.121 83.72 159.192C83.7435 159.239 86.4222 163.33 92.6961 163.871C98.923 164.388 102.401 152.537 102.448 152.419C102.471 152.325 102.565 152.278 102.659 152.302C102.753 152.325 102.8 152.419 102.777 152.513C102.777 152.537 101.884 155.594 100.215 158.533C98.1006 162.272 95.6568 164.224 93.0956 164.224Z" fill="#D0E2FC"/>
<path d="M52.0667 73.5966C46.4272 73.6907 46.1218 78.135 44.4534 81.9209C43.4195 84.2724 43.302 85.5657 42.4326 87.7291C44.2889 90.5038 47.1322 92.3615 49.294 94.9482C49.5054 95.2538 48.4245 97.2526 48.636 97.5583C50.6098 95.9828 52.5836 92.0558 53.4296 89.2576C54.534 85.6127 56.5078 80.1338 55.9908 76.9122C55.4739 73.7142 53.9465 73.5496 52.0667 73.5966Z" fill="#00B5F2"/>
<path d="M29.1332 74.6081C30.1202 73.1267 30.9191 73.9262 32.141 75.2195C33.3628 76.5128 35.1722 78.6057 36.3705 80.1812C34.8197 83.6614 33.2688 87.1416 31.6005 90.5512C29.0863 89.2579 25.8906 87.2356 24.0577 85.3309C22.2249 83.4262 22.2719 82.9794 22.6009 80.8866C22.8828 79.0054 23.5643 77.7356 25.0446 76.7715C26.854 75.6193 29.7912 78.2294 31.1071 79.2876C30.5196 78.0178 28.1463 76.0896 29.1332 74.6081Z" fill="#FF826E"/>
<path d="M22.4834 80.7693C24.0342 81.8275 25.5851 82.8856 27.136 83.9438" stroke="#78284B" stroke-width="0.979526" stroke-miterlimit="10"/>
<path d="M28.7343 81.0279C27.0424 80.0168 25.3741 78.9821 23.6353 78.0415" stroke="#78284B" stroke-width="0.979526" stroke-miterlimit="10"/>
<path d="M47.1563 87.5174C43.6551 84.9543 40.06 82.3442 36.3708 79.9927C34.679 83.4494 32.6347 86.7179 30.7549 90.057C34.961 92.0558 38.9556 94.9011 42.9737 97.2761C44.1016 97.9345 45.112 98.3343 46.0754 98.4989C49.3416 98.2402 50.258 96.1239 50.352 95.7476C52.3963 89.7514 48.0727 88.2464 47.1563 87.5174Z" fill="#00B5F2"/>
<path d="M32.7289 91.0445L32.5645 90.9504C34.4208 87.9405 36.3241 84.766 38.3684 81.2388L38.5329 81.3328C36.4886 84.8601 34.5853 88.0346 32.7289 91.0445Z" fill="#A5DFF2"/>
<path d="M43.561 84.9068L43.4435 84.8128C40.9527 83.0257 37.9215 81.0739 36.3472 80.0628L36.4412 79.8982C37.992 80.8858 40.9762 82.814 43.4435 84.5776C43.5375 84.1544 43.796 83.5195 44.0544 82.861C44.2894 82.2732 44.5244 81.6853 44.6654 81.2385C44.8064 80.7212 45.0648 80.1333 45.2998 79.569C45.5583 78.9576 45.8168 78.3697 45.9107 77.8994L46.0987 77.9464C45.9812 78.4403 45.7463 79.0281 45.4643 79.663C45.2293 80.2274 44.9708 80.7917 44.8299 81.3091C44.6889 81.7794 44.4539 82.3672 44.2189 82.9551C43.9369 83.637 43.655 84.3425 43.5845 84.7658L43.561 84.9068Z" fill="#A5DFF2"/>
<path d="M67.5531 75.3839C71.5007 71.1277 75.1194 73.926 79.1845 75.2663C81.6988 76.0893 82.7797 76.8888 85.0354 77.7119C85.8814 81.0275 85.3644 84.5312 85.8814 87.9408C85.9753 88.3171 86.6098 89.2106 86.6803 89.5869C84.119 90.0336 81.3698 88.4817 78.6441 87.2119C75.0959 85.5423 69.5269 83.3084 67.4121 80.6983C65.3208 78.0881 66.2372 76.8183 67.5531 75.3839Z" fill="#00B5F2"/>
<path d="M83.038 79.5463C85.0353 75.5253 87.0796 71.4337 89.3354 67.5537C92.5311 69.9052 95.9382 71.9275 99.2514 74.1144C96.3377 77.9473 94.0349 82.4386 91.4972 86.5302C90.7922 87.6824 90.0403 88.5055 89.2414 89.1168C86.1162 90.4337 84.2833 88.9287 84.0249 88.6465C79.3018 84.0847 82.5445 80.6515 83.038 79.5463Z" fill="#00B5F2"/>
<path d="M102.259 68.306C101.319 70.5164 100.427 71.9744 98.9931 73.9496C95.7505 72.0919 92.5313 70.1402 89.4766 67.9533C89.735 66.0721 90.534 63.6501 91.0509 61.9805C91.5679 60.311 91.7793 59.0647 93.4477 60.1229C95.116 61.181 93.8471 63.509 93.8236 65.0375C93.8236 65.0375 95.774 60.7578 97.1838 58.759C98.1002 57.4892 98.6642 57.983 98.8052 58.0771C99.5571 58.5238 99.98 58.9001 97.7713 63.0622C97.7948 63.0857 103.011 66.5424 102.259 68.306Z" fill="#FF826E"/>
<path d="M97.9361 75.9246C94.8109 74.0434 91.5682 72.0447 88.02 69.7637L88.114 69.5991C91.6622 71.8565 94.9049 73.8788 98.0301 75.76L97.9361 75.9246Z" fill="#A5DFF2"/>
<path d="M46.4061 158.579C44.0563 159.873 39.4977 161.73 37.242 162.883C34.9862 164.011 34.3987 163.541 34.0933 166.104C40.9311 165.94 49.5548 165.587 56.3691 165.469C56.2986 163.282 56.2516 161.095 56.1811 158.885C52.9149 158.791 49.6958 158.65 46.4061 158.579Z" fill="#6359A3"/>
<path d="M34.0219 165.916C33.4815 166.08 33.4345 166.762 34.1394 167.209C35.0323 167.82 53.4311 167.021 56.2273 166.574C56.8617 166.198 56.6033 165.634 56.1333 165.398C49.3425 165.445 40.8833 165.845 34.0219 165.916Z" fill="#3E338F"/>
<path d="M73.5919 158.579C75.9417 159.873 80.5003 161.73 82.7561 162.883C85.0118 164.011 85.5993 163.541 85.9047 166.104C79.0669 165.94 70.4432 165.587 63.6289 165.469C63.6994 163.282 63.7464 161.095 63.8169 158.885C67.0831 158.791 70.3258 158.65 73.5919 158.579Z" fill="#6359A3"/>
<path d="M85.9753 165.916C86.5158 166.08 86.5628 166.762 85.8578 167.209C84.9649 167.82 66.5662 167.021 63.77 166.574C63.1355 166.198 63.394 165.634 63.8639 165.398C70.6548 165.445 79.1375 165.845 85.9753 165.916Z" fill="#3E338F"/>
<path d="M78.2216 109.222C78.8795 125.965 76.6003 143.389 76.6238 160.343C72.2767 160.296 67.9296 160.249 63.5825 160.179C62.9951 143.224 64.2404 126.223 63.3945 109.387C68.3291 109.34 73.2636 109.292 78.2216 109.222Z" fill="#332A75"/>
<path d="M51.2227 109.033C49.4134 126.176 44.8784 143.036 42.9985 160.272C48.1445 160.178 53.1966 160.366 58.3661 160.366C58.695 155.428 63.5591 119.098 64.7809 118.133C66.0028 117.169 65.3919 110.632 65.6974 109.057C60.8098 109.127 56.0633 109.01 51.2227 109.033Z" fill="#332A75"/>
<path d="M78.3865 108.986C77.9166 111.855 77.3761 119.45 73.6635 120.25C69.9508 121.049 56.2517 121.049 53.4084 118.839C50.5887 116.628 51.2231 111.573 51.0352 108.586C56.0637 108.68 62.2906 108.775 66.9196 108.845C71.5722 108.916 74.0864 108.939 78.3865 108.986Z" fill="#332A75"/>
<path d="M50.2351 118.698L50.1411 118.533C54.8407 115.946 56.415 111.878 56.2975 108.962H56.4855C56.556 110.938 55.9451 112.913 54.7467 114.7C53.6423 116.299 52.0679 117.686 50.2351 118.698Z" stroke="#4A3DAB" stroke-width="0.936114" stroke-miterlimit="10"/>
<path d="M77.6103 119.451C74.4616 117.052 72.8167 113.219 73.2867 109.504L73.4747 109.528C73.0047 113.196 74.6261 116.935 77.7278 119.31L77.6103 119.451Z" stroke="#4A3DAB" stroke-width="0.936114" stroke-miterlimit="10"/>
<path d="M75.989 84.9778C75.3076 79.1931 76.4354 76.2067 73.4277 74.2315C70.4435 72.2562 69.4331 72.656 66.8249 72.4208C66.9894 71.2216 66.8719 69.9518 66.9424 68.6114C64.6866 67.8354 62.4308 67.0359 60.175 66.2834C60.222 68.2587 60.2455 70.4926 60.316 72.3268C58.0367 72.656 56.6974 72.609 53.1022 73.2909C50.8699 73.7142 50.8699 74.208 50.9169 79.3812C51.0344 86.2946 50.5879 103.86 50.1885 112.42C54.0891 112.655 58.1777 112.772 62.2898 112.866L63.8172 108.822L65.0391 112.913C69.5741 112.96 74.1092 112.937 78.3858 112.89C78.3858 105.718 76.6704 90.7859 75.989 84.9778Z" fill="#00B5F2"/>
<path d="M60.2928 72.4203C60.2458 70.3746 60.1989 68.3288 60.1519 66.283C62.4076 67.059 64.6634 67.8585 66.9192 68.6344C66.8957 70.0218 66.8017 71.0095 66.8017 72.4439C67.8121 72.4909 59.5409 72.4203 60.2928 72.4203Z" fill="#FF826E"/>
<path d="M58.8826 52.7385C61.1619 52.033 61.9843 52.9736 63.6292 53.9847C63.3002 56.2657 61.2559 57.0887 59.7991 58.5937C59.7286 58.8288 59.893 58.8993 60.0575 59.0875C60.316 60.0751 60.7155 65.9538 59.6111 66.0008C57.4493 66.0714 57.4963 64.0961 57.6373 62.5442C56.8148 61.486 56.2509 60.8746 55.546 59.6518C53.9481 56.9946 56.3919 53.4909 58.8826 52.7385Z" fill="#332A75"/>
<path d="M62.149 66.5185C62.149 66.4715 62.1255 66.3539 62.1021 66.3069C63.6999 67.0829 65.2977 67.8589 66.8956 68.6349C66.8721 69.4579 66.8486 70.2574 66.8486 71.0804C66.4491 71.2215 66.2611 71.3861 65.8147 71.3626C63.6999 71.245 62.7835 69.3638 62.149 66.5185Z" fill="#E53A24"/>
<path d="M69.974 58.4763C70.1385 60.4751 70.35 63.0382 70.068 65.2251C69.786 67.412 69.4335 70.3278 65.4859 69.1756C62.8777 68.4231 59.8465 67.8823 59.541 65.3662C59.212 62.5679 59.306 61.2746 59.165 58.782C62.8072 58.735 66.3788 58.5704 69.974 58.4763Z" fill="#FF826E"/>
<path d="M66.4487 64.0252C66.4487 64.0252 63.8169 66.024 63.6524 67.1292C63.4879 68.2579 60.5977 68.4695 59.6343 65.9769C58.6474 63.5079 58.9294 57.2529 58.9294 57.2529L65.5792 58.217L66.4487 64.0252Z" fill="#332A75"/>
<path d="M67.1074 64.5431C66.8724 65.4837 66.567 65.4367 65.4861 65.0839C64.4052 64.7312 63.0893 60.8748 64.5697 60.4045C66.05 59.9107 66.0735 60.3339 67.1074 60.7807C66.9429 61.8859 67.3424 63.6025 67.1074 64.5431Z" fill="#FF826E"/>
<path d="M67.4597 58.1704C67.4362 59.111 67.5067 63.2496 66.1908 63.1791C64.8984 63.1085 64.9219 59.064 64.8984 58.0293C65.7444 58.0058 66.6138 58.0528 67.4597 58.1704Z" fill="#332A75"/>
<path d="M59.7986 58.5937C61.232 57.1123 63.3233 56.2422 63.6052 54.0083C63.6522 54.0318 63.5817 54.0083 63.6992 54.0788C64.7331 50.5751 69.1977 49.9637 71.195 52.033C72.6284 53.491 72.0409 54.5256 71.195 56.0306C72.0174 55.3486 72.9338 55.137 73.0748 56.9947C73.1453 58.0058 71.665 60.8982 68.9862 60.7336C66.3075 60.569 62.6888 60.3103 60.0571 58.9229C59.9866 59.0405 60.0571 59.017 60.0336 59.0875C59.8926 58.9464 59.7281 58.8053 59.7986 58.5937Z" fill="#332A75"/>
<path d="M78.2455 112.842L78.128 109.339C77.846 100.027 76.6476 90.9971 75.6372 84.1778L75.8252 84.1543C76.8356 90.9736 78.034 100.003 78.3159 109.339L78.4334 112.842H78.2455Z" fill="#A5DFF2"/>
<path d="M58.6714 157.756C52.7264 157.638 47.8859 157.544 43.4448 157.497V157.309C47.9094 157.356 52.7499 157.45 58.6714 157.568V157.756Z" fill="#4A3DAB"/>
<path d="M76.5291 157.968C72.182 157.851 67.8114 157.733 63.4644 157.616V157.427C67.8114 157.545 72.182 157.663 76.5291 157.78V157.968Z" fill="#4A3DAB"/>
<path d="M50.2349 112.397H50.0469C50.1409 110.374 50.9633 92.3854 50.7753 84.0376H50.9633C51.1513 92.3854 50.3288 110.374 50.2349 112.397Z" fill="#A5DFF2"/>
<path d="M56.4854 72.7493L58.8586 70.0686C58.8586 70.0686 64.921 70.2802 67.9287 70.4919L69.1506 72.7493L62.1013 73.784L56.4854 72.7493Z" fill="#A5DFF2"/>
<path d="M36.9581 123.072H31.7886V133.442H36.9581V123.072Z" fill="#A5DFF2"/>
<path d="M24.3872 142.589C26.3857 142.589 28.0059 140.968 28.0059 138.968C28.0059 136.968 26.3857 135.347 24.3872 135.347C22.3887 135.347 20.7686 136.968 20.7686 138.968C20.7686 140.968 22.3887 142.589 24.3872 142.589Z" fill="#D7DDF2"/>
<path d="M21.6383 137.745C19.8994 137.745 18.4661 136.335 18.4661 134.571C18.4661 132.831 19.8759 131.396 21.6383 131.396V128.222C18.1371 128.222 15.3174 131.044 15.3174 134.547C15.3174 138.051 18.1371 140.873 21.6383 140.873C22.6252 140.873 23.5416 140.638 24.3875 140.238L23.0246 137.393C22.6017 137.628 22.1317 137.745 21.6383 137.745Z" fill="#7499F7"/>
<path d="M96.5736 97.5815C96.4561 101.109 98.3125 104.565 101.649 106.306L106.043 97.9107L96.5736 97.5815Z" fill="#A5DFF2"/>
<path d="M99.0634 115.923C100.932 115.923 102.447 114.407 102.447 112.537C102.447 110.667 100.932 109.151 99.0634 109.151C97.1946 109.151 95.6797 110.667 95.6797 112.537C95.6797 114.407 97.1946 115.923 99.0634 115.923Z" fill="#D7DDF2"/>
<path d="M38.7446 9.96558V20.7354H49.5066C49.5066 14.7861 44.6896 9.96558 38.7446 9.96558Z" fill="#7499F7"/>
<path d="M53.43 7.04932H44.9473V15.5382H53.43V7.04932Z" fill="#D7DDF2"/>
<path d="M43.8436 3.78116C43.8671 3.75765 43.8906 3.73413 43.8906 3.71062C43.9611 3.64007 44.0316 3.54601 44.0786 3.45195L44.1021 3.42844C44.1491 3.35789 44.2196 3.26383 44.2666 3.19329C44.2901 3.16977 44.2901 3.14626 44.3135 3.12275C44.3605 3.0522 44.4075 2.95814 44.4545 2.86408C44.4545 2.86408 44.4545 2.84057 44.478 2.84057C44.525 2.74651 44.572 2.65245 44.619 2.55839C44.6425 2.53487 44.6425 2.51136 44.6425 2.48784C44.6895 2.4173 44.713 2.32324 44.7365 2.25269C44.7365 2.22918 44.76 2.20566 44.76 2.18215C44.807 2.08809 44.8305 1.97052 44.854 1.87646C44.854 1.85294 44.8775 1.82943 44.8775 1.80591C44.901 1.71185 44.9245 1.64131 44.948 1.54725C44.948 1.52373 44.9715 1.50022 44.9715 1.4767C44.995 1.35913 45.0185 1.26507 45.042 1.1475C45.042 1.12398 45.042 1.10047 45.042 1.10047C45.0655 1.00641 45.0655 0.912347 45.0655 0.818287C45.0655 0.794772 45.0655 0.747743 45.0655 0.724228C45.0655 0.606653 45.089 0.489079 45.089 0.39502H42.5042C42.5042 1.42967 41.8933 2.29972 41.0474 2.72299L42.1753 5.05096C42.2692 5.00393 42.3632 4.95691 42.4572 4.90988C42.4807 4.88636 42.5042 4.88636 42.5277 4.86285C42.5982 4.81582 42.6922 4.76879 42.7627 4.72176C42.7862 4.72176 42.7862 4.69824 42.8097 4.69824C42.9037 4.65121 42.9742 4.58067 43.0682 4.51012C43.0917 4.48661 43.1152 4.48661 43.1387 4.46309C43.2092 4.41606 43.2796 4.34552 43.3266 4.29849C43.3501 4.27497 43.3736 4.27497 43.3736 4.25146C43.4441 4.18091 43.5381 4.11037 43.6086 4.03983C43.6321 4.01631 43.6321 4.01631 43.6556 3.9928C43.7261 3.89874 43.7966 3.82819 43.8436 3.78116Z" fill="#A5DFF2"/>
</svg>
