<svg width="49" height="55" viewBox="0 0 49 55" fill="none" xmlns="http://www.w3.org/2000/svg">
<path d="M30.2778 21.1942H36.3333C37.1363 21.1942 37.9065 20.8752 38.4743 20.3074C39.0421 19.7396 39.3611 18.9695 39.3611 18.1664C39.3611 17.3634 39.0421 16.5933 38.4743 16.0255C37.9065 15.4577 37.1363 15.1387 36.3333 15.1387H30.2778C29.4748 15.1387 28.7046 15.4577 28.1368 16.0255C27.569 16.5933 27.25 17.3634 27.25 18.1664C27.25 18.9695 27.569 19.7396 28.1368 20.3074C28.7046 20.8752 29.4748 21.1942 30.2778 21.1942ZM39.3611 36.3331C39.3611 35.5301 39.0421 34.76 38.4743 34.1922C37.9065 33.6243 37.1363 33.3053 36.3333 33.3053H30.2778C29.4748 33.3053 28.7046 33.6243 28.1368 34.1922C27.569 34.76 27.25 35.5301 27.25 36.3331C27.25 37.1361 27.569 37.9063 28.1368 38.4741C28.7046 39.0419 29.4748 39.3609 30.2778 39.3609H36.3333C37.1363 39.3609 37.9065 39.0419 38.4743 38.4741C39.0421 37.9063 39.3611 37.1361 39.3611 36.3331Z" fill="#00D694"/>
<path d="M45.4167 0H3.02778C2.22476 0 1.45463 0.318997 0.886816 0.886815C0.318998 1.45463 0 2.22476 0 3.02778V51.4722C0 52.2752 0.318998 53.0454 0.886816 53.6132C1.45463 54.181 2.22476 54.5 3.02778 54.5H24.2222C25.0252 54.5 25.7954 54.181 26.3632 53.6132C26.931 53.0454 27.25 52.2752 27.25 51.4722C27.25 50.6692 26.931 49.8991 26.3632 49.3313C25.7954 48.7634 25.0252 48.4444 24.2222 48.4444H6.05555V6.05555H42.3889V48.4444H36.3333C35.5303 48.4444 34.7602 48.7634 34.1924 49.3313C33.6245 49.8991 33.3055 50.6692 33.3055 51.4722C33.3055 52.2752 33.6245 53.0454 34.1924 53.6132C34.7602 54.181 35.5303 54.5 36.3333 54.5H45.4167C46.2197 54.5 46.9898 54.181 47.5576 53.6132C48.1254 53.0454 48.4444 52.2752 48.4444 51.4722V3.02778C48.4444 2.22476 48.1254 1.45463 47.5576 0.886815C46.9898 0.318997 46.2197 0 45.4167 0Z" fill="#00D694"/>
<path d="M23.3443 12.9894C23.0628 12.7056 22.7279 12.4803 22.359 12.3266C21.99 12.1729 21.5942 12.0938 21.1945 12.0938C20.7948 12.0938 20.3991 12.1729 20.0301 12.3266C19.6612 12.4803 19.3263 12.7056 19.0448 12.9894L15.139 16.9255L14.2609 16.0171C13.6908 15.447 12.9175 15.1267 12.1112 15.1267C11.3049 15.1267 10.5316 15.447 9.96149 16.0171C9.39135 16.5873 9.07104 17.3606 9.07104 18.1669C9.07104 18.5661 9.14968 18.9614 9.30246 19.3303C9.45525 19.6991 9.67918 20.0343 9.96149 20.3166L12.9893 23.3444C13.2707 23.6281 13.6056 23.8534 13.9746 24.0071C14.3435 24.1608 14.7393 24.24 15.139 24.24C15.5387 24.24 15.9344 24.1608 16.3034 24.0071C16.6724 23.8534 17.0072 23.6281 17.2887 23.3444L23.3443 17.2888C23.6281 17.0073 23.8533 16.6725 24.007 16.3035C24.1607 15.9345 24.2399 15.5388 24.2399 15.1391C24.2399 14.7394 24.1607 14.3436 24.007 13.9747C23.8533 13.6057 23.6281 13.2708 23.3443 12.9894ZM19.0448 31.156L15.139 35.0921L14.2609 34.1838C13.6908 33.6137 12.9175 33.2934 12.1112 33.2934C11.3049 33.2934 10.5316 33.6137 9.96149 34.1838C9.39135 34.7539 9.07104 35.5272 9.07104 36.3335C9.07104 36.7328 9.14968 37.1281 9.30246 37.4969C9.45525 37.8658 9.67918 38.2009 9.96149 38.4832L12.9893 41.511C13.2707 41.7948 13.6056 42.0201 13.9746 42.1738C14.3435 42.3275 14.7393 42.4066 15.139 42.4066C15.5387 42.4066 15.9344 42.3275 16.3034 42.1738C16.6724 42.0201 17.0072 41.7948 17.2887 41.511L23.3443 35.4555C23.9144 34.8853 24.2347 34.112 24.2347 33.3057C24.2347 32.4994 23.9144 31.7262 23.3443 31.156C22.7741 30.5859 22.0008 30.2656 21.1945 30.2656C20.3882 30.2656 19.615 30.5859 19.0448 31.156Z" fill="#00D694"/>
</svg>
