<svg width="52" height="59" viewBox="0 0 52 59" fill="none" xmlns="http://www.w3.org/2000/svg">
<path d="M32.5 23.25H39C39.8619 23.25 40.6886 22.9076 41.2981 22.2981C41.9076 21.6886 42.25 20.862 42.25 20C42.25 19.138 41.9076 18.3114 41.2981 17.7019C40.6886 17.0924 39.8619 16.75 39 16.75H32.5C31.638 16.75 30.8114 17.0924 30.2019 17.7019C29.5924 18.3114 29.25 19.138 29.25 20C29.25 20.862 29.5924 21.6886 30.2019 22.2981C30.8114 22.9076 31.638 23.25 32.5 23.25ZM42.25 39.5C42.25 38.638 41.9076 37.8114 41.2981 37.2019C40.6886 36.5924 39.8619 36.25 39 36.25H32.5C31.638 36.25 30.8114 36.5924 30.2019 37.2019C29.5924 37.8114 29.25 38.638 29.25 39.5C29.25 40.3619 29.5924 41.1886 30.2019 41.7981C30.8114 42.4076 31.638 42.75 32.5 42.75H39C39.8619 42.75 40.6886 42.4076 41.2981 41.7981C41.9076 41.1886 42.25 40.3619 42.25 39.5Z" fill="#FC21EE"/>
<path d="M48.75 0.5H3.25C2.38805 0.5 1.5614 0.84241 0.951903 1.4519C0.34241 2.0614 0 2.88805 0 3.75V55.75C0 56.6119 0.34241 57.4386 0.951903 58.0481C1.5614 58.6576 2.38805 59 3.25 59H26C26.8619 59 27.6886 58.6576 28.2981 58.0481C28.9076 57.4386 29.25 56.6119 29.25 55.75C29.25 54.888 28.9076 54.0614 28.2981 53.4519C27.6886 52.8424 26.8619 52.5 26 52.5H6.5V7H45.5V52.5H39C38.138 52.5 37.3114 52.8424 36.7019 53.4519C36.0924 54.0614 35.75 54.888 35.75 55.75C35.75 56.6119 36.0924 57.4386 36.7019 58.0481C37.3114 58.6576 38.138 59 39 59H48.75C49.6119 59 50.4386 58.6576 51.0481 58.0481C51.6576 57.4386 52 56.6119 52 55.75V3.75C52 2.88805 51.6576 2.0614 51.0481 1.4519C50.4386 0.84241 49.6119 0.5 48.75 0.5Z" fill="#FC21EE"/>
<path d="M25.0576 14.4428C24.7555 14.1382 24.396 13.8964 24 13.7314C23.6039 13.5664 23.1792 13.4814 22.7501 13.4814C22.3211 13.4814 21.8963 13.5664 21.5002 13.7314C21.1042 13.8964 20.7447 14.1382 20.4426 14.4428L16.2501 18.6678L15.3076 17.6928C14.6956 17.0808 13.8656 16.737 13.0001 16.737C12.1346 16.737 11.3046 17.0808 10.6926 17.6928C10.0806 18.3048 9.73682 19.1348 9.73682 20.0003C9.73682 20.4288 9.82123 20.8532 9.98522 21.2491C10.1492 21.645 10.3896 22.0048 10.6926 22.3078L13.9426 25.5578C14.2447 25.8624 14.6042 26.1042 15.0002 26.2692C15.3963 26.4342 15.8211 26.5191 16.2501 26.5191C16.6792 26.5191 17.1039 26.4342 17.5 26.2692C17.896 26.1042 18.2555 25.8624 18.5576 25.5578L25.0576 19.0578C25.3622 18.7557 25.604 18.3962 25.769 18.0002C25.934 17.6041 26.019 17.1793 26.019 16.7503C26.019 16.3213 25.934 15.8965 25.769 15.5004C25.604 15.1044 25.3622 14.7449 25.0576 14.4428ZM20.4426 33.9428L16.2501 38.1678L15.3076 37.1928C14.6956 36.5808 13.8656 36.237 13.0001 36.237C12.1346 36.237 11.3046 36.5808 10.6926 37.1928C10.0806 37.8048 9.73682 38.6348 9.73682 39.5003C9.73682 39.9288 9.82123 40.3532 9.98522 40.7491C10.1492 41.145 10.3896 41.5048 10.6926 41.8078L13.9426 45.0578C14.2447 45.3624 14.6042 45.6042 15.0002 45.7692C15.3963 45.9342 15.8211 46.0191 16.2501 46.0191C16.6792 46.0191 17.1039 45.9342 17.5 45.7692C17.896 45.6042 18.2555 45.3624 18.5576 45.0578L25.0576 38.5578C25.6696 37.9458 26.0134 37.1158 26.0134 36.2503C26.0134 35.3848 25.6696 34.5548 25.0576 33.9428C24.4456 33.3308 23.6156 32.987 22.7501 32.987C21.8846 32.987 21.0546 33.3308 20.4426 33.9428Z" fill="#FC21EE"/>
</svg>
