<svg width="45" height="51" viewBox="0 0 45 51" fill="none" xmlns="http://www.w3.org/2000/svg">
<path d="M41.435 50.3328H35.9252C35.1945 50.3328 34.4938 50.0401 33.9771 49.5192C33.4605 48.9982 33.1703 48.2917 33.1703 47.555C33.1703 46.8183 33.4605 46.1117 33.9771 45.5908C34.4938 45.0699 35.1945 44.7772 35.9252 44.7772H38.6801V36.1106C38.6709 35.3368 38.4956 34.5742 38.1663 33.8752C37.8371 33.1762 37.3616 32.5573 36.7727 32.0612C36.1838 31.565 35.4953 31.2032 34.7545 31.0008C34.0138 30.7983 33.2384 30.76 32.4815 30.8883L23.9963 38.555C23.4901 39.0157 22.8324 39.2707 22.1505 39.2707C21.4686 39.2707 20.8109 39.0157 20.3047 38.555L11.8195 30.8883C11.0627 30.76 10.2873 30.7983 9.54653 31.0008C8.80579 31.2032 8.1173 31.565 7.52836 32.0612C6.93941 32.5573 6.46398 33.1762 6.13473 33.8752C5.80547 34.5742 5.6302 35.3368 5.62095 36.1106V44.7772H24.9055C25.6361 44.7772 26.3368 45.0699 26.8535 45.5908C27.3701 46.1117 27.6604 46.8183 27.6604 47.555C27.6604 48.2917 27.3701 48.9982 26.8535 49.5192C26.3368 50.0401 25.6361 50.3328 24.9055 50.3328H2.86601C2.13536 50.3328 1.43463 50.0401 0.917985 49.5192C0.401335 48.9982 0.111084 48.2917 0.111084 47.555V36.1106C0.11733 34.4255 0.509393 32.7646 1.25672 31.2574C2.00404 29.7502 3.08645 28.4373 4.41958 27.4211C5.75271 26.4049 7.30056 25.7128 8.9425 25.3988C10.5844 25.0847 12.2761 25.1572 13.8857 25.6106C14.2798 25.742 14.6448 25.9496 14.9602 26.2217L22.1505 32.7217L29.3134 26.2217C29.6369 25.9464 30.0115 25.7387 30.4153 25.6106C32.0249 25.1572 33.7166 25.0847 35.3586 25.3988C37.0005 25.7128 38.5484 26.4049 39.8815 27.4211C41.2146 28.4373 42.297 29.7502 43.0443 31.2574C43.7917 32.7646 44.1837 34.4255 44.19 36.1106V47.555C44.19 48.2917 43.8997 48.9982 43.3831 49.5192C42.8664 50.0401 42.1657 50.3328 41.435 50.3328Z" fill="#FF9900"/>
<path d="M22.1506 28.1108C19.4263 28.1108 16.7631 27.2962 14.4979 25.7701C12.2326 24.2439 10.4671 22.0748 9.42452 19.5369C8.38194 16.9991 8.10916 14.2065 8.64066 11.5123C9.17216 8.81812 10.4841 6.34336 12.4105 4.40097C14.3369 2.45858 16.7913 1.13579 19.4633 0.599885C22.1354 0.0639797 24.905 0.339026 27.422 1.39024C29.939 2.44146 32.0903 4.22163 33.6039 6.50564C35.1174 8.78965 35.9253 11.4749 35.9253 14.2219C35.9253 17.9054 34.474 21.4381 31.8908 24.0428C29.3075 26.6475 25.8039 28.1108 22.1506 28.1108ZM22.1506 5.88856C20.516 5.88856 18.9181 6.3773 17.559 7.29298C16.1998 8.20866 15.1405 9.51015 14.515 11.0329C13.8894 12.5556 13.7258 14.2311 14.0447 15.8476C14.3636 17.4641 15.1507 18.949 16.3065 20.1144C17.4624 21.2799 18.935 22.0735 20.5383 22.3951C22.1415 22.7166 23.8033 22.5516 25.3134 21.9209C26.8236 21.2901 28.1144 20.222 29.0226 18.8516C29.9307 17.4812 30.4154 15.8701 30.4154 14.2219C30.4154 12.0118 29.5447 9.89214 27.9947 8.32934C26.4448 6.76654 24.3426 5.88856 22.1506 5.88856Z" fill="#FF9900"/>
</svg>
