<svg width="57" height="57" viewBox="0 0 57 57" fill="none" xmlns="http://www.w3.org/2000/svg">
<path d="M46.9617 36.0006C48.5116 34.7859 49.6451 33.1199 50.2051 31.2334C50.7651 29.347 50.7239 27.3332 50.0874 25.4711C49.4508 23.609 48.2502 21.9907 46.652 20.8401C45.0537 19.6895 43.1368 19.0637 41.1667 19.0492C40.2425 19.0676 39.3256 19.2167 38.4433 19.492C37.2067 18.4544 35.8185 17.6118 34.3267 16.9936C35.8946 15.7828 37.0442 14.1126 37.6143 12.2168C38.1844 10.3211 38.1466 8.29471 37.5061 6.42151C36.8655 4.5483 35.6544 2.92208 34.0423 1.77059C32.4302 0.619097 30.4978 0 28.5158 0C26.5338 0 24.6015 0.619097 22.9894 1.77059C21.3773 2.92208 20.1661 4.5483 19.5256 6.42151C18.8851 8.29471 18.8472 10.3211 19.4174 12.2168C19.9875 14.1126 21.137 15.7828 22.705 16.9936C21.1942 17.5791 19.7921 18.4129 18.5567 19.4604C17.1394 19.0368 15.6428 18.9497 14.1859 19.2059C12.729 19.4621 11.3521 20.0546 10.165 20.9361C8.97784 21.8176 8.01325 22.9638 7.34803 24.2834C6.68281 25.603 6.33535 27.0595 6.33333 28.5369C6.34164 29.9805 6.67969 31.4032 7.32174 32.6966C7.96379 33.99 8.89291 35.12 10.0383 36.0006C7.08546 37.1604 4.54963 39.1795 2.7597 41.7961C0.969762 44.4127 0.00830126 47.506 0 50.6749V53.8374C0 54.6762 0.33363 55.4806 0.927495 56.0737C1.52136 56.6668 2.32681 57 3.16667 57H38C38.8399 57 39.6453 56.6668 40.2392 56.0737C40.833 55.4806 41.1667 54.6762 41.1667 53.8374C41.1667 52.9987 40.833 52.1943 40.2392 51.6012C39.6453 51.0081 38.8399 50.6749 38 50.6749H31.6667C31.6667 48.1586 32.6676 45.7453 34.4492 43.9661C36.2307 42.1868 38.6471 41.1872 41.1667 41.1872C43.6862 41.1872 46.1026 42.1868 47.8842 43.9661C49.6658 45.7453 50.6667 48.1586 50.6667 50.6749C49.8268 50.6749 49.0214 51.0081 48.4275 51.6012C47.8336 52.1943 47.5 52.9987 47.5 53.8374C47.5 54.6762 47.8336 55.4806 48.4275 56.0737C49.0214 56.6668 49.8268 57 50.6667 57H53.8333C54.6732 57 55.4786 56.6668 56.0725 56.0737C56.6664 55.4806 57 54.6762 57 53.8374V50.6749C56.9917 47.506 56.0302 44.4127 54.2403 41.7961C52.4504 39.1795 49.9145 37.1604 46.9617 36.0006ZM44.3333 28.5369C44.3333 29.1624 44.1476 29.7739 43.7997 30.2939C43.4517 30.814 42.9571 31.2194 42.3785 31.4587C41.7999 31.6981 41.1632 31.7607 40.5489 31.6387C39.9346 31.5167 39.3704 31.2155 38.9275 30.7732C38.4846 30.3309 38.183 29.7674 38.0608 29.1539C37.9387 28.5404 38.0014 27.9045 38.2411 27.3267C38.4807 26.7488 38.8866 26.2549 39.4074 25.9073C39.9281 25.5598 40.5404 25.3744 41.1667 25.3744C42.0065 25.3744 42.812 25.7076 43.4058 26.3006C43.9997 26.8937 44.3333 27.6982 44.3333 28.5369ZM28.5 6.39897C29.1263 6.39897 29.7386 6.58445 30.2593 6.93195C30.7801 7.27946 31.1859 7.77339 31.4256 8.35127C31.6653 8.92915 31.728 9.56504 31.6058 10.1785C31.4836 10.792 31.182 11.3555 30.7392 11.7978C30.2963 12.2401 29.7321 12.5413 29.1178 12.6633C28.5035 12.7854 27.8668 12.7227 27.2882 12.4834C26.7095 12.244 26.215 11.8386 25.867 11.3186C25.5191 10.7985 25.3333 10.187 25.3333 9.56153C25.3333 8.72277 25.667 7.91836 26.2608 7.32526C26.8547 6.73216 27.6601 6.39897 28.5 6.39897ZM15.8333 25.3744C16.4596 25.3744 17.0719 25.5598 17.5926 25.9073C18.1134 26.2549 18.5193 26.7488 18.759 27.3267C18.9986 27.9045 19.0613 28.5404 18.9392 29.1539C18.817 29.7674 18.5154 30.3309 18.0725 30.7732C17.6296 31.2155 17.0654 31.5167 16.4511 31.6387C15.8368 31.7607 15.2001 31.6981 14.6215 31.4587C14.0429 31.2194 13.5483 30.814 13.2003 30.2939C12.8524 29.7739 12.6667 29.1624 12.6667 28.5369C12.6667 27.6982 13.0003 26.8937 13.5942 26.3006C14.188 25.7076 14.9935 25.3744 15.8333 25.3744ZM15.8333 41.1872C18.3529 41.1872 20.7693 42.1868 22.5508 43.9661C24.3324 45.7453 25.3333 48.1586 25.3333 50.6749H6.33333C6.33333 48.1586 7.33422 45.7453 9.11582 43.9661C10.8974 42.1868 13.3138 41.1872 15.8333 41.1872ZM28.5 41.1872C26.7462 38.8224 24.3664 36.9933 21.6283 35.9057C23.5068 34.4862 24.779 32.4103 25.19 30.0938C25.6011 27.7774 25.1207 25.3913 23.845 23.4136C25.2773 22.6495 26.8761 22.2497 28.5 22.2497C30.1239 22.2497 31.7227 22.6495 33.155 23.4136C31.8793 25.3913 31.3989 27.7774 31.81 30.0938C32.221 32.4103 33.4932 34.4862 35.3717 35.9057C32.6336 36.9933 30.2538 38.8224 28.5 41.1872Z" fill="#3751FF"/>
</svg>
