<svg width="36" height="36" viewBox="0 0 36 36" fill="none" xmlns="http://www.w3.org/2000/svg">
<path d="M28.836 3.672H28.116V1.836C28.116 0.72 27.36 0 26.28 0C25.2 0 24.444 0.72 24.444 1.836V3.672H12.492V1.836C12.492 0.72 11.772 0 10.656 0C9.53997 0 8.81997 0.72 8.81997 1.836V3.672H7.16397C3.67197 3.672 0.719971 6.624 0.719971 10.116V29.592C0.719971 33.084 3.67197 36.036 7.16397 36.036H28.836C32.328 36.036 35.28 33.084 35.28 29.592V10.116C35.28 6.624 32.328 3.672 28.836 3.672ZM7.16397 7.344H28.836C30.312 7.344 31.608 8.64 31.608 10.116V12.672H4.39197V10.116C4.39197 8.64 5.68797 7.344 7.16397 7.344ZM28.836 32.328H7.16397C5.68797 32.328 4.39197 31.032 4.39197 29.556V16.344H31.572V29.556C31.608 31.032 30.312 32.328 28.836 32.328Z" fill="#A5A5A5"/>
</svg>
