<svg width="60" height="60" viewBox="0 0 60 60" fill="none" xmlns="http://www.w3.org/2000/svg">
<rect x="1" y="1" width="58" height="58" rx="29" stroke="#E3EBF1" stroke-width="2"/>
<path d="M35.8267 24.8467C36.4729 25.2697 37.2277 25.4966 38 25.5C38.7911 25.5 39.5645 25.2654 40.2223 24.8259C40.8801 24.3864 41.3928 23.7616 41.6955 23.0307C41.9983 22.2998 42.0775 21.4956 41.9231 20.7196C41.7688 19.9437 41.3878 19.231 40.8284 18.6716C40.269 18.1122 39.5563 17.7312 38.7804 17.5769C38.0044 17.4225 37.2002 17.5017 36.4693 17.8045C35.7384 18.1072 35.1137 18.6199 34.6741 19.2777C34.2346 19.9355 34 20.7089 34 21.5C34.0036 21.908 34.0711 22.3129 34.2 22.7L32.1333 24.7933C31.3615 24.3054 30.446 24.0962 29.5389 24.2005C28.6317 24.3048 27.7876 24.7163 27.1467 25.3667L25.92 24.9667C25.9743 24.7035 26.0011 24.4354 26 24.1667C26.0035 23.2613 25.6998 22.3816 25.1385 21.6712C24.5773 20.9609 23.7916 20.4619 22.91 20.256C22.0284 20.05 21.103 20.1492 20.2851 20.5374C19.4672 20.9255 18.8051 21.5797 18.4072 22.3929C18.0092 23.2061 17.8989 24.1302 18.0943 25.0142C18.2896 25.8982 18.7791 26.6898 19.4827 27.2596C20.1862 27.8294 21.0623 28.1436 21.9676 28.1509C22.8729 28.1583 23.754 27.8583 24.4667 27.3L26 27.8067C25.9935 27.9266 25.9935 28.0468 26 28.1667C26 29.2275 26.4214 30.245 27.1716 30.9951C27.9217 31.7452 28.9391 32.1667 30 32.1667C31.0609 32.1667 32.0783 31.7452 32.8284 30.9951C33.5786 30.245 34 29.2275 34 28.1667C33.9909 27.7407 33.919 27.3184 33.7867 26.9133L35.8267 24.8467ZM38 20.1667C38.2637 20.1667 38.5215 20.2449 38.7408 20.3914C38.96 20.5379 39.1309 20.7461 39.2318 20.9898C39.3328 21.2334 39.3592 21.5015 39.3077 21.7601C39.2563 22.0188 39.1293 22.2563 38.9428 22.4428C38.7563 22.6293 38.5188 22.7563 38.2601 22.8077C38.0015 22.8592 37.7334 22.8328 37.4898 22.7318C37.2461 22.6309 37.0379 22.46 36.8914 22.2408C36.7449 22.0215 36.6667 21.7637 36.6667 21.5C36.6667 21.1464 36.8071 20.8072 37.0572 20.5572C37.3072 20.3071 37.6464 20.1667 38 20.1667ZM20.6667 24.1667C20.6667 23.903 20.7449 23.6452 20.8914 23.4259C21.0379 23.2066 21.2461 23.0357 21.4898 22.9348C21.7334 22.8339 22.0015 22.8075 22.2601 22.859C22.5188 22.9104 22.7563 23.0374 22.9428 23.2239C23.1293 23.4103 23.2563 23.6479 23.3077 23.9065C23.3592 24.1652 23.3328 24.4333 23.2318 24.6769C23.1309 24.9205 22.96 25.1288 22.7408 25.2753C22.5215 25.4218 22.2637 25.5 22 25.5C21.6464 25.5 21.3072 25.3595 21.0572 25.1095C20.8071 24.8594 20.6667 24.5203 20.6667 24.1667ZM30 29.5C29.7363 29.5 29.4785 29.4218 29.2592 29.2753C29.04 29.1288 28.8691 28.9205 28.7682 28.6769C28.6672 28.4333 28.6408 28.1652 28.6923 27.9065C28.7437 27.6479 28.8707 27.4103 29.0572 27.2239C29.2437 27.0374 29.4812 26.9104 29.7399 26.859C29.9985 26.8075 30.2666 26.8339 30.5102 26.9348C30.7539 27.0357 30.9621 27.2066 31.1086 27.4259C31.2551 27.6452 31.3333 27.903 31.3333 28.1667C31.3333 28.5203 31.1929 28.8594 30.9428 29.1095C30.6928 29.3595 30.3536 29.5 30 29.5Z" fill="#7D6AEB"/>
<path d="M24.6667 29.5H20.6667C20.3131 29.5 19.9739 29.6405 19.7239 29.8906C19.4738 30.1406 19.3333 30.4798 19.3333 30.8334V40.1667C19.3333 40.5203 19.4738 40.8595 19.7239 41.1095C19.9739 41.3596 20.3131 41.5 20.6667 41.5H24.6667C25.0203 41.5 25.3594 41.3596 25.6095 41.1095C25.8595 40.8595 26 40.5203 26 40.1667V30.8334C26 30.4798 25.8595 30.1406 25.6095 29.8906C25.3594 29.6405 25.0203 29.5 24.6667 29.5ZM23.3333 38.8334H22V32.1667H23.3333V38.8334ZM40.6667 26.8334H36.6667C36.3131 26.8334 35.9739 26.9739 35.7239 27.2239C35.4738 27.4739 35.3333 27.8131 35.3333 28.1667V40.1667C35.3333 40.5203 35.4738 40.8595 35.7239 41.1095C35.9739 41.3596 36.3131 41.5 36.6667 41.5H40.6667C41.0203 41.5 41.3594 41.3596 41.6095 41.1095C41.8595 40.8595 42 40.5203 42 40.1667V36.1667C42 35.8131 41.8595 35.4739 41.6095 35.2239C41.3594 34.9738 41.0203 34.8334 40.6667 34.8334C40.3131 34.8334 39.9739 34.9738 39.7239 35.2239C39.4738 35.4739 39.3333 35.8131 39.3333 36.1667V38.8334H38V29.5H39.3333V32.1667C39.3333 32.5203 39.4738 32.8595 39.7239 33.1095C39.9739 33.3596 40.3131 33.5 40.6667 33.5C41.0203 33.5 41.3594 33.3596 41.6095 33.1095C41.8595 32.8595 42 32.5203 42 32.1667V28.1667C42 27.8131 41.8595 27.4739 41.6095 27.2239C41.3594 26.9739 41.0203 26.8334 40.6667 26.8334ZM32.6667 33.5H28.6667C28.3131 33.5 27.9739 33.6405 27.7239 33.8906C27.4738 34.1406 27.3333 34.4798 27.3333 34.8334V40.1667C27.3333 40.5203 27.4738 40.8595 27.7239 41.1095C27.9739 41.3596 28.3131 41.5 28.6667 41.5H32.6667C33.0203 41.5 33.3594 41.3596 33.6095 41.1095C33.8595 40.8595 34 40.5203 34 40.1667V34.8334C34 34.4798 33.8595 34.1406 33.6095 33.8906C33.3594 33.6405 33.0203 33.5 32.6667 33.5ZM31.3333 38.8334H30V36.1667H31.3333V38.8334Z" fill="#7D6AEB"/>
</svg>
