<svg width="60" height="61" viewBox="0 0 60 61" fill="none" xmlns="http://www.w3.org/2000/svg">
<rect x="1" y="1.5" width="58" height="58" rx="29" stroke="#E3EBF1" stroke-width="2"/>
<rect x="1" y="1" width="58" height="58" rx="29" stroke="#E3EBF1" stroke-width="2"/>
<path d="M40.3733 24.6733L35.04 18.0067C34.9158 17.8495 34.7579 17.7224 34.5778 17.6347C34.3978 17.547 34.2003 17.5009 34 17.5H20.6667C20.313 17.5 19.9739 17.6405 19.7239 17.8905C19.4738 18.1406 19.3333 18.4797 19.3333 18.8333V25.5C19.3333 25.8536 19.4738 26.1928 19.7239 26.4428C19.9739 26.6929 20.313 26.8333 20.6667 26.8333C21.0203 26.8333 21.3594 26.6929 21.6095 26.4428C21.8595 26.1928 22 25.8536 22 25.5V20.1667H31.3333V25.5C31.3333 25.8536 31.4738 26.1928 31.7239 26.4428C31.9739 26.6929 32.313 26.8333 32.6667 26.8333H38V38.8333H22V32.1667C22 31.813 21.8595 31.4739 21.6095 31.2239C21.3594 30.9738 21.0203 30.8333 20.6667 30.8333C20.313 30.8333 19.9739 30.9738 19.7239 31.2239C19.4738 31.4739 19.3333 31.813 19.3333 32.1667V40.1667C19.3333 40.5203 19.4738 40.8594 19.7239 41.1095C19.9739 41.3595 20.313 41.5 20.6667 41.5H39.3333C39.687 41.5 40.0261 41.3595 40.2761 41.1095C40.5262 40.8594 40.6667 40.5203 40.6667 40.1667V25.5C40.6649 25.1992 40.5616 24.9079 40.3733 24.6733ZM34 20.9667L36.56 24.1667H34V20.9667Z" fill="#3CC2E0"/>
<path d="M30 28.1666C29.6464 28.1666 29.3072 28.3071 29.0572 28.5572C28.8071 28.8072 28.6667 29.1463 28.6667 29.5V30.8333H27.3333C26.9797 30.8333 26.6406 30.9738 26.3905 31.2238C26.1405 31.4739 26 31.813 26 32.1666C26 32.5202 26.1405 32.8594 26.3905 33.1094C26.6406 33.3595 26.9797 33.5 27.3333 33.5H28.6667V34.8333C28.6667 35.1869 28.8071 35.5261 29.0572 35.7761C29.3072 36.0262 29.6464 36.1666 30 36.1666C30.3536 36.1666 30.6928 36.0262 30.9428 35.7761C31.1929 35.5261 31.3333 35.1869 31.3333 34.8333V33.5H32.6667C33.0203 33.5 33.3594 33.3595 33.6095 33.1094C33.8595 32.8594 34 32.5202 34 32.1666C34 31.813 33.8595 31.4739 33.6095 31.2238C33.3594 30.9738 33.0203 30.8333 32.6667 30.8333H31.3333V29.5C31.3333 29.1463 31.1929 28.8072 30.9428 28.5572C30.6928 28.3071 30.3536 28.1666 30 28.1666Z" fill="#3CC2E0"/>
</svg>
