<svg width="60" height="60" viewBox="0 0 60 60" fill="none" xmlns="http://www.w3.org/2000/svg">
<rect x="1" y="1" width="58" height="58" rx="29" stroke="#E3EBF1" stroke-width="2"/>
<path d="M42.0001 31.12C41.949 30.8045 41.7862 30.5179 41.5415 30.3123C41.2968 30.1067 40.9863 29.9959 40.6667 30H35.3334C35.528 30.0025 35.7208 29.9624 35.8982 29.8825C36.0756 29.8026 36.2334 29.6848 36.3605 29.5374C36.4875 29.39 36.5808 29.2166 36.6337 29.0293C36.6866 28.842 36.6979 28.6455 36.6667 28.4534L35.3334 20.4534C35.2823 20.1379 35.1195 19.8512 34.8748 19.6456C34.6301 19.4401 34.3197 19.3292 34.0001 19.3334H26.0001C25.6805 19.3292 25.37 19.4401 25.1253 19.6456C24.8806 19.8512 24.7178 20.1379 24.6667 20.4534L23.3334 28.4534C23.3029 28.6449 23.3146 28.8407 23.3675 29.0272C23.4205 29.2137 23.5135 29.3865 23.6401 29.5334C23.7667 29.6814 23.9243 29.8 24.1016 29.8806C24.279 29.9612 24.4719 30.002 24.6667 30H19.3334C19.0138 29.9959 18.7034 30.1067 18.4586 30.3123C18.2139 30.5179 18.0512 30.8045 18.0001 31.12L16.6667 39.12C16.6362 39.3115 16.6479 39.5074 16.7009 39.6939C16.7538 39.8804 16.8468 40.0531 16.9734 40.2C17.1 40.3481 17.2576 40.4666 17.435 40.5473C17.6123 40.6279 17.8052 40.6686 18.0001 40.6667H28.6667C28.8593 40.6667 29.0496 40.625 29.2246 40.5444C29.3995 40.4639 29.5549 40.3464 29.6801 40.2C29.8066 40.0531 29.8996 39.8804 29.9526 39.6939C30.0056 39.5074 30.0172 39.3115 29.9867 39.12L28.6534 31.12C28.6026 30.8068 28.4418 30.522 28.1999 30.3167C27.9579 30.1114 27.6507 29.9991 27.3334 30H32.6667C32.3471 29.9959 32.0367 30.1067 31.792 30.3123C31.5473 30.5179 31.3845 30.8045 31.3334 31.12L30.0001 39.12C29.9696 39.3115 29.9812 39.5074 30.0342 39.6939C30.0871 39.8804 30.1802 40.0531 30.3067 40.2C30.4334 40.3481 30.5909 40.4666 30.7683 40.5473C30.9457 40.6279 31.1386 40.6686 31.3334 40.6667H35.3334C35.687 40.6667 36.0262 40.5262 36.2762 40.2762C36.5263 40.0261 36.6667 39.687 36.6667 39.3334C36.6667 38.9797 36.5263 38.6406 36.2762 38.3906C36.0262 38.1405 35.687 38 35.3334 38H32.9067L33.8001 32.6667H39.5334L40.4267 38H39.3334C38.9798 38 38.6406 38.1405 38.3906 38.3906C38.1405 38.6406 38.0001 38.9797 38.0001 39.3334C38.0001 39.687 38.1405 40.0261 38.3906 40.2762C38.6406 40.5262 38.9798 40.6667 39.3334 40.6667H42.0001C42.1947 40.6692 42.3874 40.6291 42.5649 40.5492C42.7423 40.4692 42.9001 40.3515 43.0271 40.2041C43.1542 40.0567 43.2475 39.8832 43.3004 39.696C43.3533 39.5087 43.3646 39.3121 43.3334 39.12L42.0001 31.12ZM19.5734 38L20.4667 32.6667H26.2001L27.0934 38H19.5734ZM26.2401 27.3334L27.1334 22H32.8667L33.7601 27.3334H26.2401Z" fill="#219653"/>
</svg>
