<svg width="60" height="61" viewBox="0 0 60 61" fill="none" xmlns="http://www.w3.org/2000/svg">
<rect x="1" y="1.5" width="58" height="58" rx="29" stroke="#E3EBF1" stroke-width="2"/>
<path d="M40.6667 23.8333H36.6667V19.8333C36.6667 19.4797 36.5262 19.1406 36.2761 18.8905C36.0261 18.6405 35.687 18.5 35.3333 18.5H24.6667C24.313 18.5 23.9739 18.6405 23.7239 18.8905C23.4738 19.1406 23.3333 19.4797 23.3333 19.8333V23.8333H19.3333C18.9797 23.8333 18.6406 23.9738 18.3905 24.2239C18.1405 24.4739 18 24.813 18 25.1667V41.1667C18 41.5203 18.1405 41.8594 18.3905 42.1095C18.6406 42.3595 18.9797 42.5 19.3333 42.5H23.3333C23.687 42.5 24.0261 42.3595 24.2761 42.1095C24.5262 41.8594 24.6667 41.5203 24.6667 41.1667C24.6667 40.813 24.5262 40.4739 24.2761 40.2239C24.0261 39.9738 23.687 39.8333 23.3333 39.8333H20.6667V33.1667H26V34.5C26 34.8536 26.1405 35.1928 26.3905 35.4428C26.6406 35.6929 26.9797 35.8333 27.3333 35.8333H32.6667C33.0203 35.8333 33.3594 35.6929 33.6095 35.4428C33.8595 35.1928 34 34.8536 34 34.5V33.1667H39.3333V39.8333H28.6667C28.313 39.8333 27.9739 39.9738 27.7239 40.2239C27.4738 40.4739 27.3333 40.813 27.3333 41.1667C27.3333 41.5203 27.4738 41.8594 27.7239 42.1095C27.9739 42.3595 28.313 42.5 28.6667 42.5H40.6667C41.0203 42.5 41.3594 42.3595 41.6095 42.1095C41.8595 41.8594 42 41.5203 42 41.1667V25.1667C42 24.813 41.8595 24.4739 41.6095 24.2239C41.3594 23.9738 41.0203 23.8333 40.6667 23.8333ZM26 21.1667H34V23.8333H26V21.1667ZM31.3333 33.1667H28.6667V30.5H31.3333V33.1667ZM34 30.5V29.1667C34 28.813 33.8595 28.4739 33.6095 28.2239C33.3594 27.9738 33.0203 27.8333 32.6667 27.8333H27.3333C26.9797 27.8333 26.6406 27.9738 26.3905 28.2239C26.1405 28.4739 26 28.813 26 29.1667V30.5H20.6667V26.5H39.3333V30.5H34Z" fill="#FF844B"/>
</svg>
