<svg width="24" height="28" viewBox="0 0 24 28" fill="#3751FF" xmlns="http://www.w3.org/2000/svg">
<path fill-rule="evenodd" clip-rule="evenodd" d="M13.3333 26C13.3333 26.7373 13.9293 27.3333 14.6667 27.3333H18.6667C20.0813 27.3333 21.4373 26.772 22.4373 25.772C23.4373 24.772 24 23.4146 24 22C24 21.2346 24 20.6666 24 20.6666C24 19.9306 23.4027 19.3333 22.6667 19.3333H14.6667C13.9293 19.3333 13.3333 19.9306 13.3333 20.6666V26ZM9.33333 27.3333C10.0693 27.3333 10.6667 26.7373 10.6667 26V12.6666C10.6667 11.9306 10.0693 11.3333 9.33333 11.3333H1.33333C0.596 11.3333 0 11.9306 0 12.6666V22C0 23.4146 0.56133 24.772 1.56133 25.772C2.56133 26.772 3.91867 27.3333 5.33333 27.3333H9.33333ZM21.3333 22H16V24.6666H18.6667C19.3733 24.6666 20.052 24.3866 20.552 23.8866C21.052 23.3866 21.3333 22.708 21.3333 22ZM8 24.6666V14H2.66667V22C2.66667 22.708 2.94666 23.3866 3.448 23.8866C3.948 24.3866 4.62533 24.6666 5.33333 24.6666H8ZM14.6667 0.666626C13.9293 0.666626 13.3333 1.26396 13.3333 1.99996V15.3333C13.3333 16.0706 13.9293 16.6666 14.6667 16.6666H22.6667C23.4027 16.6666 24 16.0706 24 15.3333V5.99996C24 4.58663 23.4373 3.22929 22.4373 2.22929C21.4373 1.22929 20.0813 0.666626 18.6667 0.666626H14.6667ZM16 3.33329V14H21.3333V5.99996C21.3333 5.29329 21.052 4.61462 20.552 4.11462C20.052 3.61462 19.3733 3.33329 18.6667 3.33329H16ZM10.6667 1.99996C10.6667 1.26396 10.0693 0.666626 9.33333 0.666626H5.33333C3.91867 0.666626 2.56133 1.22929 1.56133 2.22929C0.56133 3.22929 0 4.58663 0 5.99996V7.33329C0 8.07063 0.596 8.66663 1.33333 8.66663H9.33333C10.0693 8.66663 10.6667 8.07063 10.6667 7.33329V1.99996ZM8 3.33329H5.33333C4.62533 3.33329 3.948 3.61462 3.448 4.11462C2.94666 4.61462 2.66667 5.29329 2.66667 5.99996H8V3.33329Z" />
</svg>
