<svg width="135" height="170" viewBox="0 0 135 170" fill="none" xmlns="http://www.w3.org/2000/svg">
<path d="M96.5465 169.604H22.4444C20.5349 169.604 18.9927 168.062 18.9927 166.152C18.9927 164.243 20.5349 162.7 22.4444 162.7H96.5465C98.4559 162.7 99.9982 164.243 99.9982 166.152C100.023 168.062 98.4804 169.604 96.5465 169.604Z" fill="#D7DDF2"/>
<path d="M38.7487 65.4642H1.75889C1.04895 65.4642 0.461426 64.8767 0.461426 64.1667V35.5981H40.0462V64.1667C40.0462 64.8767 39.4831 65.4642 38.7487 65.4642Z" fill="#DADEF2"/>
<path d="M37.0846 37.9482H2.7876V62.7224H37.0846V37.9482Z" fill="white"/>
<path d="M38.7487 31.6077H1.75889C1.04895 31.6077 0.461426 32.1952 0.461426 32.9051V35.6224H40.0462V32.9051C40.0462 32.1707 39.4831 31.6077 38.7487 31.6077Z" fill="#332A75"/>
<path d="M3.91369 33.6151C3.91369 33.9333 3.66889 34.1781 3.35065 34.1781C3.0324 34.1781 2.7876 33.9333 2.7876 33.6151C2.7876 33.2968 3.0324 33.052 3.35065 33.052C3.66889 33.052 3.91369 33.2968 3.91369 33.6151Z" fill="#FF1800"/>
<path d="M6.60608 33.6151C6.60608 33.9333 6.36127 34.1781 6.04303 34.1781C5.72478 34.1781 5.47998 33.9333 5.47998 33.6151C5.47998 33.2968 5.72478 33.052 6.04303 33.052C6.36127 33.052 6.60608 33.2968 6.60608 33.6151Z" fill="#FFC900"/>
<path d="M8.7359 34.1781C9.04686 34.1781 9.29895 33.926 9.29895 33.6151C9.29895 33.3041 9.04686 33.052 8.7359 33.052C8.42494 33.052 8.17285 33.3041 8.17285 33.6151C8.17285 33.926 8.42494 34.1781 8.7359 34.1781Z" fill="#00D694"/>
<path d="M5.48015 41.0814H4.9171C4.7947 41.0814 4.69678 40.9834 4.69678 40.861V40.2001C4.69678 40.0777 4.7947 39.9797 4.9171 39.9797H5.48015C5.60255 39.9797 5.70047 40.0777 5.70047 40.2001V40.861C5.72495 40.9834 5.60255 41.0814 5.48015 41.0814Z" fill="#DADEF2"/>
<path d="M5.48064 43.2845H4.91759C4.79519 43.2845 4.69727 43.1866 4.69727 43.0642V42.4032C4.69727 42.2808 4.79519 42.1829 4.91759 42.1829H5.48064C5.60304 42.1829 5.70096 42.2808 5.70096 42.4032V43.0642C5.72544 43.1866 5.60304 43.2845 5.48064 43.2845Z" fill="#DADEF2"/>
<path d="M10.3026 41.0819H6.75299C6.43475 41.0819 6.18994 40.8371 6.18994 40.5189C6.18994 40.2006 6.43475 39.9558 6.75299 39.9558H10.3026C10.6209 39.9558 10.8657 40.2006 10.8657 40.5189C10.8657 40.8371 10.5964 41.0819 10.3026 41.0819Z" fill="#DADEF2"/>
<path d="M10.9147 43.2848H6.75299C6.43475 43.2848 6.18994 43.04 6.18994 42.7217C6.18994 42.4035 6.43475 42.1587 6.75299 42.1587H10.9147C11.2329 42.1587 11.4777 42.4035 11.4777 42.7217C11.4777 43.04 11.2084 43.2848 10.9147 43.2848Z" fill="#DADEF2"/>
<path d="M23.5332 59.9741C28.3173 57.9924 30.5892 52.5075 28.6075 47.7234C26.6258 42.9392 21.141 40.6674 16.3568 42.6491C11.5727 44.6308 9.30082 50.1156 11.2825 54.8998C13.2642 59.6839 18.749 61.9558 23.5332 59.9741Z" fill="#7499F7"/>
<path d="M19.9478 41.9392V51.3152H29.3237C29.2993 46.1498 25.1131 41.9392 19.9478 41.9392Z" fill="#6956F2"/>
<path d="M24.0115 59.7609C27.145 58.2431 29.3237 55.0362 29.3237 51.3152H19.9478L24.0115 59.7609Z" fill="#56CBF2"/>
<path d="M19.9472 55.9902C22.5296 55.9902 24.623 53.8968 24.623 51.3144C24.623 48.7321 22.5296 46.6387 19.9472 46.6387C17.3649 46.6387 15.2715 48.7321 15.2715 51.3144C15.2715 53.8968 17.3649 55.9902 19.9472 55.9902Z" fill="white"/>
<path d="M32.9958 40.7393H26.8268C26.2148 40.7393 25.7007 41.2289 25.7007 41.8654V45.1212C25.7007 45.7088 26.1413 46.1739 26.7044 46.2229V47.4714C26.7044 47.8141 27.1695 47.961 27.3653 47.6672L28.3935 46.2229H32.9958C33.6078 46.2229 34.1219 45.7333 34.1219 45.0968V41.8409C34.1219 41.2533 33.6078 40.7393 32.9958 40.7393Z" fill="#FFC900"/>
<path d="M132.729 60.543H82.0551C81.0758 60.543 80.2925 59.7597 80.2925 58.7804V19.6853H134.492V58.7804C134.492 59.7597 133.709 60.543 132.729 60.543Z" fill="#DADEF2"/>
<path d="M132.729 14.2017H82.0551C81.0758 14.2017 80.2925 14.985 80.2925 15.9642V19.6608H134.492V15.9642C134.492 15.0095 133.709 14.2017 132.729 14.2017Z" fill="#332A75"/>
<path d="M85.0418 16.9677C85.0418 17.3839 84.6991 17.7511 84.2585 17.7511C83.8423 17.7511 83.4751 17.4083 83.4751 16.9677C83.4751 16.5271 83.8178 16.1843 84.2585 16.1843C84.6991 16.1843 85.0418 16.5515 85.0418 16.9677Z" fill="#FF1800"/>
<path d="M88.7142 16.9677C88.7142 17.3839 88.3715 17.7511 87.9308 17.7511C87.4902 17.7511 87.1475 17.4083 87.1475 16.9677C87.1475 16.5271 87.4902 16.1843 87.9308 16.1843C88.3715 16.1843 88.7142 16.5515 88.7142 16.9677Z" fill="#FFC900"/>
<path d="M91.6271 17.7511C92.0598 17.7511 92.4105 17.4003 92.4105 16.9677C92.4105 16.5351 92.0598 16.1843 91.6271 16.1843C91.1945 16.1843 90.8438 16.5351 90.8438 16.9677C90.8438 17.4003 91.1945 17.7511 91.6271 17.7511Z" fill="#00D694"/>
<path d="M115.887 22.5493H83.4995V55.965H115.887V22.5493Z" fill="white"/>
<path d="M130.061 34.5936H118.898C118.262 34.5936 117.723 34.0795 117.723 33.4186V23.8223C117.723 23.1858 118.237 22.6472 118.898 22.6472H130.061C130.698 22.6472 131.236 23.1613 131.236 23.8223V33.4186C131.236 34.0795 130.698 34.5936 130.061 34.5936Z" fill="#6956F2"/>
<path d="M131.236 36.1118H117.723V55.9654H131.236V36.1118Z" fill="white"/>
<path d="M85.5562 24.2393V52.7344H113.66" stroke="#D6E2FF" stroke-width="1.80909" stroke-miterlimit="10"/>
<path d="M91.3821 38.511H87.7835C87.4163 38.511 87.1226 38.8047 87.1226 39.172V52.7341H92.0431V39.172C92.0431 38.8047 91.7493 38.511 91.3821 38.511Z" fill="#FFC900"/>
<path d="M98.139 44.3127H94.5404C94.1732 44.3127 93.8794 44.6065 93.8794 44.9737V52.734H98.7999V44.9737C98.7999 44.6065 98.5062 44.3127 98.139 44.3127Z" fill="#6956F2"/>
<path d="M104.896 31.436H101.297C100.93 31.436 100.636 31.7298 100.636 32.097V52.734H105.557V32.097C105.557 31.7298 105.263 31.436 104.896 31.436Z" fill="#FF3700"/>
<path d="M111.651 25.0962H108.053C107.685 25.0962 107.392 25.39 107.392 25.7572V52.759H112.312V25.7327C112.312 25.39 112.018 25.0962 111.651 25.0962Z" fill="#56CBF2"/>
<path d="M89.0078 26.6128H88.2489C88.0776 26.6128 87.9307 26.4659 87.9307 26.2946V25.3888C87.9307 25.2174 88.0776 25.0706 88.2489 25.0706H89.0078C89.1792 25.0706 89.326 25.2174 89.326 25.3888V26.2946C89.3016 26.4659 89.1792 26.6128 89.0078 26.6128Z" fill="#DADEF2"/>
<path d="M89.0083 29.6233H88.2494C88.078 29.6233 87.9312 29.4764 87.9312 29.3051V28.3993C87.9312 28.2279 88.078 28.0811 88.2494 28.0811H89.0083C89.1797 28.0811 89.3265 28.2279 89.3265 28.3993V29.3051C89.3021 29.5009 89.1797 29.6233 89.0083 29.6233Z" fill="#DADEF2"/>
<path d="M95.5934 26.614H90.7218C90.3056 26.614 89.9629 26.2712 89.9629 25.8551C89.9629 25.4389 90.3056 25.0962 90.7218 25.0962H95.5934C96.0095 25.0962 96.3523 25.4389 96.3523 25.8551C96.3523 26.2712 96.0095 26.614 95.5934 26.614Z" fill="#DADEF2"/>
<path d="M98.1883 29.6245H90.7218C90.3056 29.6245 89.9629 29.2817 89.9629 28.8656C89.9629 28.4494 90.3056 28.1067 90.7218 28.1067H98.1883C98.6045 28.1067 98.9472 28.4494 98.9472 28.8656C98.9472 29.2817 98.6045 29.6245 98.1883 29.6245Z" fill="#DADEF2"/>
<path d="M124.48 47.8379C126.941 47.8379 128.935 45.8431 128.935 43.3824C128.935 40.9218 126.941 38.927 124.48 38.927C122.019 38.927 120.024 40.9218 120.024 43.3824C120.024 45.8431 122.019 47.8379 124.48 47.8379Z" stroke="#EBEBEB" stroke-width="6.03044" stroke-miterlimit="10"/>
<path d="M127.319 39.9548C128.299 40.7627 128.935 42.0112 128.935 43.3821C128.935 44.9243 128.152 46.2708 126.977 47.0786" stroke="#3D7FEB" stroke-width="6.03044" stroke-miterlimit="10" stroke-linecap="round"/>
<path d="M127.148 26.7597H120.195C119.779 26.7597 119.437 26.417 119.437 26.0008C119.437 25.5847 119.779 25.2419 120.195 25.2419H127.148C127.564 25.2419 127.907 25.5847 127.907 26.0008C127.907 26.417 127.564 26.7597 127.148 26.7597Z" fill="#DADEF2"/>
<path d="M124.504 29.7959H120.195C119.779 29.7959 119.437 29.4531 119.437 29.037C119.437 28.6208 119.779 28.2781 120.195 28.2781H124.504C124.92 28.2781 125.263 28.6208 125.263 29.037C125.263 29.4531 124.92 29.7959 124.504 29.7959Z" fill="#DADEF2"/>
<path d="M129.033 51.5586H119.829C119.608 51.5586 119.413 51.3873 119.413 51.1425C119.413 50.9222 119.584 50.7263 119.829 50.7263H129.033C129.254 50.7263 129.45 50.8977 129.45 51.1425C129.45 51.3873 129.254 51.5586 129.033 51.5586Z" fill="#DADEF2"/>
<path d="M129.033 53.5408H119.829C119.608 53.5408 119.413 53.3695 119.413 53.1247C119.413 52.9043 119.584 52.7085 119.829 52.7085H129.033C129.254 52.7085 129.45 52.8799 129.45 53.1247C129.45 53.3695 129.254 53.5408 129.033 53.5408Z" fill="#DADEF2"/>
<path d="M81.5644 45.0964C80.1935 44.7537 79.9732 45.6595 79.7283 47.3976C79.4835 49.1601 79.1408 51.9509 79.0674 53.9338C82.1764 55.2802 85.2364 56.6756 88.3699 57.8996C89.2512 55.4516 90.6955 51.8285 90.9893 49.5273C91.2831 47.2507 90.9159 46.6142 89.6674 45.4881C88.5658 44.4844 87.2683 43.8479 85.824 44.0193C84.0614 44.2396 82.9842 48.2789 82.5926 49.7232C82.4212 48.7685 82.9353 45.4391 81.5644 45.0964Z" fill="#FF826E"/>
<path d="M82.5923 49.7969C84.3059 50.6782 85.5544 52.0735 84.869 54.0809" stroke="#78284B" stroke-width="0.56094" stroke-miterlimit="10"/>
<path d="M89.6921 45.439C89.129 47.1526 88.566 48.8662 88.0029 50.5798" stroke="#78284B" stroke-width="0.56094" stroke-miterlimit="10"/>
<path d="M85.3101 49.5031C86.02 47.7405 86.7544 45.9779 87.4643 44.2153" stroke="#78284B" stroke-width="0.56094" stroke-miterlimit="10"/>
<path d="M64.6485 56.1124C67.9534 54.2519 71.3806 57.3609 73.4125 60.0538C73.9266 60.7392 75.1506 62.306 75.7871 63.0893C76.7174 59.9069 77.7211 56.7 78.7982 53.542C83.0333 55.4515 87.3174 57.1896 91.5769 59.0746C89.7164 63.8972 87.709 70.1642 86.2892 74.742C84.8448 79.3443 82.4458 83.5794 77.5252 82.184C72.6047 80.7886 64.673 69.6501 62.1271 66.1494C59.5811 62.6487 60.8786 61.8408 61.6619 59.5397C62.4453 57.2385 62.837 57.1406 64.6485 56.1124Z" fill="#00B5F2"/>
<path d="M90.7199 61.2779C86.4358 59.6377 82.1517 57.9485 77.8677 56.3083L90.7199 61.2779Z" fill="#0099F2"/>
<path d="M48.9081 43.3826C47.6106 42.0362 44.1344 43.3092 43.5714 43.6519C42.5677 44.2394 41.8333 45.2921 41.6619 46.4426C41.515 47.3239 41.6374 48.3032 41.0989 48.9886C40.5603 49.6741 39.5076 49.7965 38.6753 49.5517C37.8185 49.3069 37.1086 48.7438 36.3497 48.3032C35.5908 47.8625 34.685 47.4953 33.8282 47.6911C32.7266 47.9115 31.9922 48.9152 31.527 49.9433C30.2051 52.8075 30.352 56.2838 31.8943 59.0256C33.461 61.7674 36.3742 63.6768 39.5076 63.9951C42.6411 64.3133 45.897 63.0403 47.9779 60.6657C49.3732 59.0745 50.2056 56.6754 49.1039 54.8884C48.8102 54.3988 48.3695 53.9092 48.5164 53.3461C48.7367 52.5872 49.7894 52.5872 50.4749 52.269C51.6989 51.6814 51.8702 50.0168 51.6254 48.6948C51.2093 46.7119 50.279 44.8514 48.9081 43.3826Z" fill="#332A75"/>
<path d="M76.1063 150.607L82.1529 159.322L88.9829 163.214C89.7174 163.63 90.158 164.414 90.158 165.246V165.589H79.2153L71.0388 158.098L69.007 165.589H67.8809L69.2028 150.582H76.1063V150.607Z" fill="#332A75"/>
<path d="M68.957 153.593L69.2263 150.606H76.1053L82.152 159.321L88.0272 162.675H79.3612L68.957 153.593Z" fill="#FF826E"/>
<path d="M44.1098 150.607L38.0632 159.322L31.2332 163.214C30.4988 163.63 30.0581 164.414 30.0581 165.246V165.589H41.0008L49.1773 158.098L51.2091 165.589H52.3352L51.0133 150.582H44.1098V150.607Z" fill="#332A75"/>
<path d="M51.2337 153.593L50.9889 150.606H44.1099L38.0633 159.321L32.188 162.675H40.854L51.2337 153.593Z" fill="#FF826E"/>
<path d="M71.503 94.2272L79.8753 154.694L67.9534 154.596L57.231 93.1746L71.503 94.2272Z" fill="#332A75"/>
<path d="M43.1794 93.8115L39.4829 154.768L52.8492 154.645C52.8492 154.645 57.7208 103.212 58.4062 103.53C59.0917 103.848 58.8714 92.9302 58.8714 92.9302L43.1794 93.8115Z" fill="#332A75"/>
<path d="M70.304 109.381L44.771 109.259L47.2925 98.7324L70.2061 99.6872L70.304 109.381Z" fill="#332A75"/>
<path d="M61.1962 54.3984L51.1348 54.7166L52.5301 52.5378L59.8008 52.5868L61.1962 54.3984Z" fill="#0099F2"/>
<path d="M70.4989 62.7696C70.6213 63.6264 73.6324 68.0084 73.8772 69.6485C74.1955 71.8518 71.4047 77.1151 71.4047 77.1151L71.6985 90.0652L70.4744 95.3774L60.5599 95.255H41.6611L44.4763 84.3857L39.1641 61.7414C39.1641 61.7414 40.6084 57.4818 44.9169 56.2088C49.2255 54.9358 53.2648 53.8342 53.2648 53.8342L59.5317 54.079C59.5317 54.079 63.1059 54.6176 66.1169 55.4255C68.6629 56.0864 69.8624 58.0449 70.4989 62.7696Z" fill="#8A7BF5"/>
<path d="M62.3473 54.5439C62.3473 54.5439 61.9312 57.3836 56.6679 57.6774C51.4046 57.9712 49.7889 55.4986 49.1279 54.5439C50.8905 54.2012 53.1917 53.834 53.1917 53.834L59.7034 54.0053C59.7034 54.0053 60.8051 54.2012 62.3473 54.5439Z" fill="#FF826E"/>
<path d="M61.7593 32.9043C60.1681 31.2886 57.6956 30.7256 55.4678 31.1417C53.2401 31.5334 50.4739 31.6068 48.8337 33.1736C47.5117 34.4466 47.1445 37.1639 46.6304 38.9265C46.1164 40.6891 46.2877 42.7209 47.3893 44.1898C49.2254 46.6623 53.0443 46.8581 55.7861 45.4383C57.8669 44.3611 59.4581 42.5985 60.8535 40.787C61.1963 40.3463 61.49 39.9057 61.9062 39.5385C62.1755 39.3182 62.4692 39.1223 62.714 38.8775C63.3505 38.1921 63.3995 37.017 63.2771 36.1357C63.1547 34.9117 62.6161 33.7611 61.7593 32.9043Z" fill="#332A75"/>
<path d="M52.5552 47.9104L59.2628 50.897L59.1159 55.0587C58.3081 54.9363 57.5002 55.7196 56.6924 55.6462C55.3215 55.5238 53.9506 54.5935 52.5797 54.5935L52.5552 47.9104Z" fill="#FF826E"/>
<path d="M52.5552 47.9104L59.2628 50.897L59.1159 55.0587C58.3081 54.9363 57.5002 55.7196 56.6924 55.6462C55.3215 55.5238 53.9506 54.5935 52.5797 54.5935L52.5552 47.9104Z" fill="#FF826E"/>
<path d="M59.2628 50.897L59.1649 53.9081C58.8711 53.9815 58.5529 54.006 58.2346 54.006C55.7376 54.006 53.7058 52.5372 52.6041 48.1797C52.5797 48.1062 52.5552 47.9594 52.5552 47.9104L59.2628 50.897Z" fill="#E45341"/>
<path d="M62.3726 35.9634C63.156 36.9426 63.6211 38.1421 63.6946 39.4151C63.7925 41.1777 63.8659 43.7726 63.5722 46.0003C63.107 49.6968 59.5574 51.4839 58.211 51.5329C56.4729 51.5818 53.1435 50.5781 51.993 46.5389C50.9403 42.8179 50.0835 39.6354 50.0835 39.6354L50.1814 39.0479C50.5976 36.3795 52.7274 34.2987 55.3957 33.956L56.9135 33.7601C58.9944 33.4908 61.0752 34.3232 62.3726 35.9634Z" fill="#FF826E"/>
<path d="M53.0694 46.8327C53.0694 46.8327 52.947 47.9098 51.2089 47.3713C49.4708 46.8327 48.2223 42.5731 50.2541 42.3038C52.2615 42.0101 51.9188 43.2341 51.9188 43.2341L53.0694 46.8327Z" fill="#FF826E"/>
<path d="M59.3124 42.7686C59.2634 43.5764 59.6551 44.3108 60.2916 44.7759C60.3895 44.8494 60.5119 44.9473 60.6098 45.0942C61.2708 45.951 59.9244 47.1016 58.9941 46.1468" stroke="#78284B" stroke-width="0.786972" stroke-miterlimit="10"/>
<path d="M59.6052 48.4724C59.6052 48.4724 57.5733 48.9865 56.2759 47.0281" stroke="#78284B" stroke-width="0.786972" stroke-miterlimit="10"/>
<path d="M55.8839 44.1644C56.1002 44.1644 56.2756 43.8137 56.2756 43.381C56.2756 42.9484 56.1002 42.5977 55.8839 42.5977C55.6675 42.5977 55.4922 42.9484 55.4922 43.381C55.4922 43.8137 55.6675 44.1644 55.8839 44.1644Z" fill="black"/>
<path d="M61.9312 44.3353C62.1476 44.3353 62.3229 43.9846 62.3229 43.5519C62.3229 43.1193 62.1476 42.7686 61.9312 42.7686C61.7149 42.7686 61.5396 43.1193 61.5396 43.5519C61.5396 43.9846 61.7149 44.3353 61.9312 44.3353Z" fill="black"/>
<path d="M62.9106 41.6921C62.9106 41.6921 62.47 40.4926 61.1235 40.9822" stroke="#78284B" stroke-width="0.786972" stroke-miterlimit="10"/>
<path d="M56.6675 40.86C56.6675 40.86 55.5659 40.2235 54.856 41.4475" stroke="#78284B" stroke-width="0.777857" stroke-miterlimit="10"/>
<path d="M52.8488 43.0399C52.5305 43.7988 52.0165 44.6556 51.2086 44.6556C50.7435 44.6556 50.3028 44.3374 50.058 43.9457C49.8132 43.554 49.6908 43.0889 49.6174 42.6238C49.2257 40.5674 49.2012 38.3642 50.0825 36.4547C50.4987 35.5489 51.1352 34.7656 51.9185 34.1535C52.604 33.6395 53.6322 33.0519 54.5135 33.1743C54.8807 33.2233 55.1744 33.4436 55.2234 33.8108C55.2968 34.3494 55.101 34.9859 55.0031 35.5244C54.8072 36.724 54.5379 37.9235 54.2197 39.0986C53.877 40.2736 53.4853 41.4487 53.0446 42.5993C52.9712 42.7462 52.8978 42.893 52.8488 43.0399Z" fill="#332A75"/>
<path d="M53.6319 35.6705C55.7127 37.7268 58.3811 39.1712 61.2453 39.8077C62.5672 40.1014 63.9626 40.2238 65.2356 39.8077C67.855 38.9509 69.3973 35.8908 68.9566 33.1735C68.516 30.4562 66.4841 28.155 64.0361 26.882C62.0287 25.8539 59.6786 25.3887 57.4753 25.9518C55.2966 26.5148 53.3381 28.1795 52.7261 30.3338C52.1141 32.488 51.649 34.5933 53.6319 35.6705Z" fill="#332A75"/>
<path d="M55.6151 76.3565L54.538 109.895L35.835 108.866L43.3504 82.4521L38.3809 61.5459C38.3809 61.5459 40.3883 58.2655 41.6613 57.3108C42.9343 56.3316 49.495 54.6914 50.0336 54.6914L55.6151 76.3565Z" fill="#00B5F2"/>
<path d="M52.6045 52.5127L51.1846 55.6217L55.6155 76.3566L47.8063 65.4383L50.6215 62.2804L45.9458 59.9302C45.9458 59.9058 47.0474 53.957 52.6045 52.5127Z" fill="#79D3F2"/>
<path d="M61.5884 76.1363L63.1551 109.405L76.1542 107.765L71.9436 90.0656L71.6743 77.0421C71.6743 77.0421 74.0489 71.7299 74.2202 69.649C74.3916 67.5682 70.7685 62.77 70.7685 62.77C70.7685 62.77 70.6461 58.3881 68.3939 56.1848C66.8517 54.667 62.9838 54.716 62.9838 54.716L61.5884 76.1363Z" fill="#00B5F2"/>
<path d="M59.2134 52.5866L61.1963 54.3982C61.1963 54.3982 62.2979 67.3728 61.588 76.1123L65.2356 64.3617L63.1547 62.2809L67.0961 57.7275C67.1205 57.7275 62.7875 52.3173 59.2134 52.5866Z" fill="#79D3F2"/>
<path d="M75.9828 107.691L76.3255 107.642L72.1149 90.0654L71.8456 77.0908C72.0659 76.5767 74.2202 71.7051 74.3916 69.6733C74.5874 67.5435 71.0377 62.8677 70.8909 62.6719L70.6216 62.8922C70.6461 62.9412 74.2202 67.6414 74.0488 69.6488C73.8775 71.6806 71.5274 76.9439 71.5029 76.9929L71.4784 77.0174L71.7477 90.0899L75.9828 107.691Z" fill="#0099F2"/>
<path d="M53.7794 78.6097C54.3067 78.6097 54.7342 78.1822 54.7342 77.6549C54.7342 77.1276 54.3067 76.7002 53.7794 76.7002C53.2522 76.7002 52.8247 77.1276 52.8247 77.6549C52.8247 78.1822 53.2522 78.6097 53.7794 78.6097Z" fill="#79D3F2"/>
<path d="M53.1183 91.5594C53.6456 91.5594 54.073 91.1319 54.073 90.6046C54.073 90.0773 53.6456 89.6499 53.1183 89.6499C52.591 89.6499 52.1636 90.0773 52.1636 90.6046C52.1636 91.1319 52.591 91.5594 53.1183 91.5594Z" fill="#C2D1FC"/>
<path d="M52.4582 104.975C52.9854 104.975 53.4129 104.548 53.4129 104.021C53.4129 103.493 52.9854 103.066 52.4582 103.066C51.9309 103.066 51.5034 103.493 51.5034 104.021C51.5034 104.548 51.9309 104.975 52.4582 104.975Z" fill="#79D3F2"/>
<path d="M65.0312 70.9434L72.6201 70.9434L72.6201 69.548L65.0312 69.548L65.0312 70.9434Z" fill="#79D3F2"/>
<path d="M64.7568 98.335L72.3457 98.335L72.3457 96.9396L64.7568 96.9396L64.7568 98.335Z" fill="#79D3F2"/>
<path d="M46.8273 60.886C49.5201 67.2754 44.6975 69.8458 41.2703 73.6158C39.1405 75.9414 37.7451 76.7493 35.7377 78.7811C31.6984 78.0957 30.8416 75.868 26.8513 74.7419C26.4107 74.644 24.6726 76.8717 24.2319 76.7738C24.9908 73.7627 27.9774 69.4296 30.8661 66.1003C33.9262 62.5507 39.9483 58.5359 41.0989 58.1687C44.9178 56.8712 45.9215 58.7317 46.8273 60.886Z" fill="#00B5F2"/>
<path d="M43.2042 109.161L28.1243 94.7663C27.8795 94.5215 27.8795 94.1298 28.0998 93.885L47.121 73.958C47.3659 73.7132 47.7575 73.7132 48.0023 73.9335L63.0822 88.328C63.327 88.5728 63.327 88.9645 63.1067 89.2093L44.0855 109.136C43.8652 109.406 43.4735 109.406 43.2042 109.161Z" fill="#356996"/>
<path d="M29.6413 94.3107L43.6138 107.646L61.5798 88.821L47.6073 75.4859L29.6413 94.3107Z" fill="white"/>
<path d="M56.1787 83.1618C57.6659 83.1618 58.8715 81.9562 58.8715 80.469C58.8715 78.9817 57.6659 77.7761 56.1787 77.7761C54.6915 77.7761 53.4858 78.9817 53.4858 80.469C53.4858 81.9562 54.6915 83.1618 56.1787 83.1618Z" fill="#244766"/>
<path d="M56.179 81.6686C56.8415 81.6686 57.3786 81.1316 57.3786 80.4691C57.3786 79.8066 56.8415 79.2695 56.179 79.2695C55.5165 79.2695 54.9795 79.8066 54.9795 80.4691C54.9795 81.1316 55.5165 81.6686 56.179 81.6686Z" fill="#142738"/>
<path d="M56.5955 86.5407L50.1082 80.3472C49.4962 79.7841 49.3003 78.8783 49.6186 78.1194L50.304 76.3079C50.4999 75.7938 51.1608 75.6469 51.5525 76.0386L60.8551 84.9005C61.2467 85.2677 61.1243 85.9287 60.6347 86.149L58.8721 86.9324C58.0888 87.2751 57.183 87.1282 56.5955 86.5407Z" fill="#244766"/>
<path d="M43.8412 83.3332C43.7678 83.2597 43.7433 83.1863 43.7188 83.0884L43.6943 81.742C43.6943 81.5461 43.8412 81.3748 44.0371 81.3748C44.2329 81.3748 44.4043 81.5216 44.4043 81.7175L44.4287 82.6477L46.5096 82.305C46.7054 82.2805 46.9013 82.4029 46.9257 82.5988C46.9502 82.7946 46.8278 82.9905 46.632 83.0149L44.135 83.4066C44.0371 83.4311 43.9391 83.4066 43.8412 83.3332C43.8657 83.3332 43.8412 83.3332 43.8412 83.3332Z" fill="#DADEF2"/>
<path d="M54.9548 92.6598L47.0721 85.1444C46.9007 84.973 46.8762 84.6792 47.0476 84.5079C47.219 84.3365 47.5127 84.312 47.6841 84.4834L55.5668 91.9989C55.7381 92.1702 55.7626 92.464 55.5912 92.6353C55.4199 92.8312 55.1261 92.8312 54.9548 92.6598Z" fill="#DADEF2"/>
<path d="M40.5121 86.809C40.4387 86.7356 40.4142 86.6621 40.3897 86.5642L40.3652 85.2178C40.3652 85.0219 40.5121 84.8506 40.708 84.8506C40.9038 84.8506 41.0752 84.9975 41.0752 85.1933L41.0996 86.1236L43.1805 85.7808C43.3763 85.7564 43.5722 85.8788 43.5966 86.0746C43.6211 86.2704 43.4987 86.4663 43.3029 86.4908L40.8059 86.8825C40.708 86.9314 40.61 86.9069 40.5121 86.809C40.5121 86.8335 40.5121 86.8335 40.5121 86.809Z" fill="#DADEF2"/>
<path d="M51.6257 96.1611L43.743 88.6456C43.5716 88.4742 43.5471 88.1805 43.7185 88.0091C43.8899 87.8377 44.1836 87.8132 44.355 87.9846L52.2377 95.5001C52.409 95.6714 52.4335 95.9652 52.2621 96.1366C52.0908 96.3079 51.797 96.3324 51.6257 96.1611Z" fill="#DADEF2"/>
<path d="M37.182 90.3107C37.1086 90.2373 37.0841 90.1638 37.0596 90.0659L37.0352 88.7195C37.0352 88.5237 37.182 88.3523 37.3779 88.3523C37.5737 88.3523 37.7451 88.4992 37.7451 88.695L37.7696 89.6253L39.8504 89.2826C40.0462 89.2581 40.2421 89.3805 40.2666 89.5763C40.291 89.7722 40.1686 89.968 39.9728 89.9925L37.4758 90.3842C37.3779 90.4331 37.28 90.3842 37.182 90.3107Z" fill="#DADEF2"/>
<path d="M48.2717 99.6376L40.389 92.1221C40.2176 91.9508 40.1931 91.657 40.3645 91.4857C40.5359 91.3143 40.8296 91.2898 41.001 91.4612L48.8837 98.9766C49.055 99.148 49.0795 99.4418 48.9081 99.6131C48.7613 99.809 48.4675 99.809 48.2717 99.6376Z" fill="#DADEF2"/>
<path d="M33.8529 93.8107C33.7795 93.7373 33.755 93.6638 33.7305 93.5659L33.7061 92.2195C33.7061 92.0237 33.8529 91.8523 34.0488 91.8523C34.2446 91.8523 34.416 91.9992 34.416 92.195L34.4405 93.1253L36.5213 92.7825C36.7171 92.7581 36.913 92.8805 36.9375 93.0763C36.9619 93.2722 36.8395 93.468 36.6437 93.4925L34.1467 93.8842C34.0488 93.9086 33.9509 93.8842 33.8529 93.8107Z" fill="#DADEF2"/>
<path d="M44.9426 103.137L37.0599 95.6219C36.8885 95.4505 36.864 95.1568 37.0354 94.9854C37.2068 94.814 37.5005 94.7896 37.6719 94.9609L45.5546 102.476C45.7259 102.648 45.7504 102.942 45.579 103.113C45.4322 103.309 45.1384 103.309 44.9426 103.137Z" fill="#DADEF2"/>
<path d="M50.5971 94.3985C51.9925 93.3703 51.1847 92.6359 49.8872 91.5098C48.5898 90.3837 46.5089 88.719 44.9177 87.6174C41.6129 89.2576 38.308 90.8978 35.1011 92.6604C36.4475 95.035 38.5283 98.0461 40.4623 99.7352C42.3717 101.424 42.8124 101.375 44.8198 100.984C46.6068 100.641 47.8309 99.9311 48.6877 98.4622C49.7403 96.6507 47.0965 93.9334 46.0193 92.7094C47.2433 93.1745 49.2018 95.4022 50.5971 94.3985Z" fill="#FF826E"/>
<path d="M44.9185 101.083C43.8414 99.6138 42.7642 98.1694 41.6626 96.7251" stroke="#78284B" stroke-width="0.619141" stroke-miterlimit="10"/>
<path d="M44.4038 95.0361C45.4565 96.6274 46.5091 98.2186 47.4883 99.8588" stroke="#78284B" stroke-width="0.619141" stroke-miterlimit="10"/>
<path d="M37.6961 75.9659C41.0499 80.152 42.127 83.0652 45.2115 87.4717C41.0499 89.7483 37.133 92.4167 33.1182 94.8892C30.4499 89.8218 29.0545 86.419 25.921 81.5964C25.0397 80.2499 24.5256 79.0259 24.2563 77.8509C24.4032 73.8116 26.9737 72.5631 27.4143 72.4407C34.685 69.6255 36.7413 74.8643 37.6961 75.9659Z" fill="#00B5F2"/>
<path d="M31.9434 92.7585C35.542 90.3104 39.361 87.8134 43.5961 85.1451L43.4002 84.8513C39.1651 87.5442 35.3462 90.0412 31.7476 92.4892L31.9434 92.7585Z" fill="#0099F2"/>
<path d="M42.3564 70.7268L49.9453 70.7268L49.9453 69.3314L42.3564 69.3314L42.3564 70.7268Z" fill="#79D3F2"/>
<path d="M88.4683 90.1409V109.652H107.979C107.955 98.8804 99.2396 90.1409 88.4683 90.1409Z" fill="#7499F7"/>
<path d="M5.92065 114.106C5.65136 121.915 9.76406 129.578 17.1571 133.446L26.9248 114.841L5.92065 114.106Z" fill="#A5DFF2"/>
<path d="M115.03 84.8521H99.6807V100.201H115.03V84.8521Z" fill="#D7DDF2"/>
<path d="M46.3867 0.39502H41.001V11.1909H46.3867V0.39502Z" fill="#A5DFF2"/>
<path d="M11.4779 154.768C15.6286 154.768 18.9933 151.403 18.9933 147.253C18.9933 143.102 15.6286 139.737 11.4779 139.737C7.32719 139.737 3.9624 143.102 3.9624 147.253C3.9624 151.403 7.32719 154.768 11.4779 154.768Z" fill="#D7DDF2"/>
<path d="M33.2895 20.7133C35.3716 20.7133 37.0595 19.0254 37.0595 16.9433C37.0595 14.8612 35.3716 13.1733 33.2895 13.1733C31.2074 13.1733 29.5195 14.8612 29.5195 16.9433C29.5195 19.0254 31.2074 20.7133 33.2895 20.7133Z" fill="#D7DDF2"/>
<path d="M30.4495 15.6703C28.6379 15.6703 27.1446 14.2015 27.1446 12.3655C27.1446 10.5295 28.6134 9.06064 30.4495 9.06064V5.78027C26.8019 5.78027 23.8643 8.71792 23.8643 12.3655C23.8643 16.0131 26.8019 18.9507 30.4495 18.9507C31.4777 18.9507 32.4324 18.7059 33.3137 18.2897L31.8693 15.3276C31.4287 15.5479 30.9636 15.6703 30.4495 15.6703Z" fill="#7499F7"/>
<path d="M14.5869 116.041H19.2627C19.2627 110.875 15.0766 106.665 9.88672 106.665V111.34C12.4816 111.34 14.5869 113.446 14.5869 116.041Z" fill="#7499F7"/>
<path d="M97.7225 78.9288C97.747 78.8799 97.796 78.8554 97.8204 78.8064C97.9428 78.6595 98.0652 78.5127 98.1876 78.3658C98.1876 78.3413 98.2121 78.3413 98.2121 78.3168C98.31 78.1699 98.408 78.023 98.5059 77.8762C98.5304 77.8272 98.5548 77.7782 98.5793 77.7538C98.6772 77.6069 98.7507 77.46 98.8486 77.3131C98.8486 77.2886 98.8731 77.2886 98.8731 77.2642C98.971 77.0928 99.0445 76.9214 99.1424 76.7501C99.1669 76.7011 99.1913 76.6521 99.2158 76.6032C99.2893 76.4563 99.3382 76.3094 99.4117 76.1625C99.4361 76.1136 99.4361 76.0891 99.4606 76.0401C99.5341 75.8688 99.583 75.6729 99.6565 75.4771C99.6809 75.4281 99.6809 75.3792 99.7054 75.3547C99.7544 75.2078 99.7789 75.0364 99.8278 74.8896C99.8278 74.8406 99.8523 74.7916 99.8523 74.7427C99.9013 74.5468 99.9257 74.351 99.9502 74.1551C99.9502 74.1307 99.9502 74.0817 99.9747 74.0572C99.9992 73.8859 100.024 73.7145 100.024 73.5431C100.024 73.4942 100.024 73.4452 100.048 73.3718C100.073 73.1759 100.073 72.9556 100.073 72.7598H95.3969C95.3969 74.6203 94.3197 76.2115 92.7285 76.9704L94.7604 81.2055C94.9318 81.1321 95.1031 81.0341 95.2745 80.9362C95.3234 80.9117 95.3724 80.8872 95.4214 80.8628C95.5682 80.7893 95.7151 80.6914 95.8375 80.5935C95.862 80.569 95.8865 80.569 95.911 80.5445C96.0578 80.4466 96.2292 80.3242 96.3761 80.2018C96.425 80.1773 96.4495 80.1528 96.4985 80.1039C96.6209 80.006 96.7433 79.908 96.8657 79.8101C96.8902 79.7856 96.9391 79.7611 96.9636 79.7122C97.1105 79.5898 97.2329 79.4429 97.3798 79.3205C97.4043 79.296 97.4288 79.2715 97.4532 79.2471C97.5022 79.1736 97.6001 79.0512 97.7225 78.9288Z" fill="#A5DFF2"/>
</svg>
