<svg width="15" height="15" viewBox="0 0 15 15" fill="none" xmlns="http://www.w3.org/2000/svg">
<path d="M12.2524 0.363525H3.66893C2.17796 0.363525 0.964966 1.57623 0.964966 3.06721V5.9233V11.651C0.964966 13.142 2.17796 14.3547 3.66893 14.3547H12.2527C13.7437 14.3547 14.9564 13.142 14.9564 11.651V5.92301V3.06693C14.9561 1.57595 13.7434 0.363525 12.2524 0.363525ZM13.028 1.97586L13.3373 1.97473V2.28263V4.34624L10.9737 4.35386L10.9655 1.98263L13.028 1.97586ZM5.96368 5.92301C6.41185 5.30297 7.13885 4.89629 7.96068 4.89629C8.78251 4.89629 9.50951 5.30297 9.95712 5.92301C10.2487 6.32772 10.4233 6.82274 10.4233 7.35896C10.4233 8.71673 9.3176 9.82134 7.9604 9.82134C6.60235 9.82134 5.49773 8.71673 5.49773 7.35896C5.49801 6.82274 5.67214 6.32772 5.96368 5.92301ZM13.593 11.6507C13.593 12.3904 12.9916 12.9913 12.2524 12.9913H3.66893C2.92951 12.9913 2.3281 12.3904 2.3281 11.6507V5.92301H4.41654C4.2362 6.36667 4.13488 6.85124 4.13488 7.35896C4.13488 9.468 5.85079 11.185 7.96068 11.185C10.0703 11.185 11.7862 9.468 11.7862 7.35896C11.7862 6.85124 11.6843 6.36667 11.504 5.92301H13.593V11.6507Z" fill="#1E266D"/>
</svg>
