<svg width="57" height="57" viewBox="0 0 57 57" fill="none" xmlns="http://www.w3.org/2000/svg">
<g clip-path="url(#clip0_88_989)">
<path d="M41.0949 33.6647L41.074 33.8388C35.9678 31.2938 35.4337 30.9548 34.7743 31.944C34.3168 32.629 32.984 34.1825 32.5823 34.6422C32.1759 35.095 31.7719 35.1299 31.0822 34.8164C30.3856 34.4681 28.1495 33.7366 25.5023 31.3682C23.4403 29.5221 22.0564 27.2581 21.6477 26.5615C20.9674 25.3866 22.3908 25.2194 23.6865 22.7673C23.9187 22.2796 23.8003 21.8965 23.6284 21.5505C23.4543 21.2022 22.068 17.7888 21.4875 16.4281C20.9302 15.072 20.3567 15.2438 19.9271 15.2438C18.5896 15.1277 17.612 15.1463 16.7505 16.0426C13.0027 20.1619 13.9478 24.4113 17.1546 28.93C23.4566 37.1779 26.8143 38.6965 32.9538 40.805C34.6117 41.3321 36.1234 41.2578 37.3192 41.0859C38.6521 40.8746 41.4223 39.4117 42.0005 37.7747C42.5926 36.1376 42.5926 34.7792 42.4185 34.4658C42.2466 34.1523 41.7915 33.9781 41.0949 33.6647V33.6647Z" fill="url(#paint0_linear_88_989)"/>
<path d="M48.0919 8.45147C30.2376 -8.80834 0.689497 3.70984 0.677887 28.0589C0.677887 32.9259 1.95269 37.6722 4.38156 41.8635L0.443359 56.172L15.1536 52.3359C33.5094 62.2511 56.1633 49.0851 56.1726 28.0728C56.1726 20.698 53.2932 13.7574 48.057 8.54203L48.0919 8.45147ZM51.5331 27.9962C51.5192 45.7204 32.0627 56.7896 16.6745 47.7429L15.8386 47.246L7.13087 49.51L9.46453 41.0461L8.90956 40.1754C-0.666582 24.9311 10.3353 5.00787 28.4752 5.00787C34.6379 5.00787 40.4221 7.4112 44.7783 11.765C49.1321 16.0817 51.5331 21.866 51.5331 27.9962V27.9962Z" fill="url(#paint1_linear_88_989)"/>
</g>
<defs>
<linearGradient id="paint0_linear_88_989" x1="28.4199" y1="15.1936" x2="28.4199" y2="41.2135" gradientUnits="userSpaceOnUse">
<stop stop-color="#3751FF"/>
<stop offset="1" stop-color="#3751FF"/>
</linearGradient>
<linearGradient id="paint1_linear_88_989" x1="28.308" y1="0.441711" x2="28.308" y2="56.172" gradientUnits="userSpaceOnUse">
<stop stop-color="#3751FF"/>
<stop offset="1" stop-color="#3751FF"/>
</linearGradient>
<clipPath id="clip0_88_989">
<rect width="55.7292" height="55.7292" fill="white" transform="translate(0.443359 0.443054)"/>
</clipPath>
</defs>
</svg>
