<svg width="334" height="265" viewBox="0 0 334 265" fill="none" xmlns="http://www.w3.org/2000/svg">
<g clip-path="url(#clip0_88_914)">
<path d="M321.069 129.08H317.811V258.12H321.069V129.08Z" fill="#3F3D56"/>
<path d="M351.135 145.524C351.343 190.646 319.683 227.372 319.683 227.372C319.683 227.372 287.687 190.941 287.48 145.818C287.272 100.696 318.932 63.9705 318.932 63.9705C318.932 63.9705 350.928 100.402 351.135 145.524Z" fill="#3F3D56"/>
<path d="M255.926 189.795H254.25V256.163H255.926V189.795Z" fill="#3F3D56"/>
<path d="M271.39 198.253C271.497 221.46 255.214 240.349 255.214 240.349C255.214 240.349 238.758 221.611 238.651 198.404C238.544 175.197 254.828 156.308 254.828 156.308C254.828 156.308 271.284 175.045 271.39 198.253Z" fill="#3F3D56"/>
<path d="M288.954 265C314.027 265 334.353 261.876 334.353 258.022C334.353 254.168 314.027 251.044 288.954 251.044C263.881 251.044 243.555 254.168 243.555 258.022C243.555 261.876 263.881 265 288.954 265Z" fill="#3F3D56"/>
<path d="M292.699 95.3919C288.853 88.8752 281.243 88.5715 281.243 88.5715C281.243 88.5715 273.828 87.6206 269.071 97.5457C264.638 106.797 258.519 115.729 268.086 117.894L269.815 112.501L270.885 118.296C272.247 118.394 273.614 118.418 274.978 118.366C285.225 118.034 294.982 118.463 294.668 114.776C294.251 109.875 296.4 101.662 292.699 95.3919Z" fill="#2F2E41"/>
<path d="M278.846 107.664C278.846 107.664 283.816 114.642 280.834 120.291C277.852 125.94 287.793 131.921 287.793 131.921L295.083 115.971C295.083 115.971 286.467 110.323 288.787 105.006L278.846 107.664Z" fill="#FBBEBE"/>
<path d="M282.161 110.655C286.919 110.655 290.777 106.787 290.777 102.016C290.777 97.2442 286.919 93.3763 282.161 93.3763C277.402 93.3763 273.545 97.2442 273.545 102.016C273.545 106.787 277.402 110.655 282.161 110.655Z" fill="#FBBEBE"/>
<path d="M252.344 112.003L259.544 102.688C259.544 102.688 262.079 92.9235 265.751 93.4185C269.423 93.9135 264.301 105.128 264.301 105.128L257.147 115.439L252.344 112.003Z" fill="#FBBEBE"/>
<path d="M288.789 235.925L291.109 248.22L296.079 249.549L294.754 234.928L288.789 235.925Z" fill="#FBBEBE"/>
<path d="M286.8 126.604L281.272 119.308C281.272 119.308 270.562 121.288 269.568 122.285C268.574 123.282 272.219 141.557 272.219 141.557C272.219 141.557 272.882 146.541 275.865 149.2L278.847 151.193L303.369 146.209L304.291 135.268C304.627 131.283 304.129 127.272 302.829 123.491C301.529 119.711 299.455 116.244 296.742 113.313L292.475 113.898L286.8 126.604Z" fill="#575A89"/>
<path d="M270.894 122.949L269.237 122.285L261.615 121.62C261.615 121.62 258.964 120.956 259.627 119.627C260.29 118.297 260.952 117.965 259.627 117.633C258.301 117.301 257.97 116.968 258.301 115.971C258.633 114.975 260.621 112.981 260.621 112.981L254.987 108.329C254.987 108.329 254.683 108.545 254.19 108.945C251.393 111.216 242.543 119.409 249.023 127.601C256.644 137.237 265.592 142.886 272.882 140.893L270.894 122.949Z" fill="#575A89"/>
<path d="M278.183 149.532V154.184C278.183 154.184 275.201 159.833 276.195 165.149C277.189 170.466 277.521 173.124 277.521 173.124C277.629 177.646 278.411 182.126 279.84 186.415C282.16 193.061 274.538 236.59 284.148 237.254C293.758 237.919 299.06 238.584 302.043 235.261C305.025 231.938 297.072 174.785 297.072 174.785C297.072 174.785 324.245 231.606 329.879 229.28C335.512 226.954 349.762 221.637 348.105 218.647C346.448 215.656 304.694 149.2 304.694 149.2L303.368 146.209L278.183 149.532Z" fill="#2F2E41"/>
<path d="M294.09 245.894C294.09 245.894 288.788 245.561 288.788 247.223C288.788 248.884 286.137 254.533 286.137 254.533C286.137 254.533 284.148 261.179 289.45 260.514C294.753 259.85 298.066 253.868 298.066 253.868L296.741 247.555L294.09 245.894Z" fill="#2F2E41"/>
<path d="M282.174 94.1216C285.213 94.1216 287.676 91.6515 287.676 88.6045C287.676 85.5574 285.213 83.0873 282.174 83.0873C279.135 83.0873 276.672 85.5574 276.672 88.6045C276.672 91.6515 279.135 94.1216 282.174 94.1216Z" fill="#2F2E41"/>
<path d="M276.092 87.1526C276.092 85.79 276.595 84.4756 277.504 83.4627C278.413 82.4498 279.664 81.8099 281.015 81.6665C280.823 81.646 280.629 81.6357 280.436 81.6354C278.977 81.6354 277.577 82.2167 276.545 83.2514C275.513 84.286 274.934 85.6893 274.934 87.1526C274.934 88.6158 275.513 90.0191 276.545 91.0538C277.577 92.0884 278.977 92.6697 280.436 92.6697C280.629 92.6695 280.823 92.6591 281.015 92.6387C279.664 92.4952 278.413 91.8554 277.504 90.8425C276.595 89.8296 276.092 88.5152 276.092 87.1526Z" fill="#2F2E41"/>
<path d="M290.999 94.7639L283.481 90.8151L273.099 92.4306L270.951 101.943L276.298 101.737L277.792 98.2422V101.679L280.259 101.584L281.691 96.0202L282.586 101.943L291.357 101.764L290.999 94.7639Z" fill="#2F2E41"/>
<path d="M290.548 150.302L278.954 150.616C278.954 150.616 269.061 152.546 269.616 148.542C270.171 144.538 279.823 145.939 279.823 145.939L290.387 144.323L290.548 150.302Z" fill="#FBBEBE"/>
<path d="M299.721 112.75C300.304 112.661 300.899 112.784 301.399 113.097C301.899 113.409 302.272 113.89 302.45 114.454C304.72 121.626 311.713 145.626 304.765 148.919C296.582 152.797 290.61 152.627 290.61 152.627L287.414 144.736L290.324 141.998L293.43 121.969L294.919 113.479L299.721 112.75Z" fill="#575A89"/>
<path opacity="0.4" d="M297.57 126.106L296.245 139.397L284.646 144.382L297.57 141.391V126.106Z" fill="black"/>
<path d="M235.02 82.2274C238.755 83.22 241.987 85.5742 244.084 88.8297L245.168 90.513L245.222 90.5826L264.238 96.1621C264.587 96.2643 264.882 96.4997 265.059 96.8176C265.236 97.1354 265.282 97.5104 265.186 97.8617L263.71 103.29C263.662 103.466 263.579 103.632 263.467 103.777C263.355 103.921 263.216 104.042 263.057 104.133C262.898 104.223 262.723 104.281 262.541 104.303C262.36 104.326 262.176 104.312 262 104.262L242.979 98.9314L242.978 98.9319L241.068 99.6561C237.55 100.99 233.692 101.121 230.092 100.03L235.02 82.2274Z" fill="#3F3D56"/>
<path d="M255.046 97.9687C255.227 97.3515 254.437 96.5767 253.283 96.238C252.129 95.8994 251.047 96.1253 250.867 96.7424C250.687 97.3596 251.477 98.1345 252.631 98.4731C253.785 98.8117 254.866 98.5859 255.046 97.9687Z" fill="#575A89"/>
<path d="M254.076 98.5379C254.517 98.5379 254.874 98.1795 254.874 97.7374C254.874 97.2953 254.517 96.9369 254.076 96.9369C253.635 96.9369 253.277 97.2953 253.277 97.7374C253.277 98.1795 253.635 98.5379 254.076 98.5379Z" fill="#3F3D56"/>
<path d="M236.61 92.5084C238.196 87.6048 237.689 83.0467 235.477 82.3277C233.266 81.6086 230.187 85.0009 228.602 89.9045C227.016 94.8082 227.523 99.3663 229.735 100.085C231.946 100.804 235.024 97.4121 236.61 92.5084Z" fill="#FFEE58"/>
<path opacity="0.4" d="M236.019 92.335C237.547 87.61 237.131 83.2065 235.121 82.2485C235.242 82.2637 235.361 82.2902 235.477 82.3276C237.689 83.0467 238.196 87.6048 236.61 92.5084C235.024 97.4121 231.946 100.804 229.735 100.085C229.654 100.059 229.576 100.028 229.5 99.991C231.675 100.269 234.517 96.9804 236.019 92.335Z" fill="black"/>
<path d="M235.27 82.2448L192.112 48.6759C184.48 42.697 177.156 36.3327 170.169 29.6078C157.867 17.8491 141.166 8.44779 121.721 3.44245C74.479 -8.71829 37.0537 12.8442 20.0315 44.5053C-5.98007 92.8869 -25.9145 171.397 89.4208 129.606C114.644 120.466 140.177 119.495 159.536 114.681L229.637 100.188L235.27 82.2448Z" fill="#3751FF"/>
<path d="M105.701 25.7568C106.982 25.7568 108.02 24.7154 108.02 23.4308C108.02 22.1462 106.982 21.1049 105.701 21.1049C104.419 21.1049 103.381 22.1462 103.381 23.4308C103.381 24.7154 104.419 25.7568 105.701 25.7568Z" fill="#F2F2F2"/>
<path d="M150.761 28.8071H150.157V28.2017H150.039V28.8071H149.436V28.9254H150.039V29.5309H150.157V28.9254H150.761V28.8071Z" fill="#F2F2F2"/>
<path d="M211.404 79.3142H210.8V78.7087H210.682V79.3142H210.078V79.4324H210.682V80.0379H210.8V79.4324H211.404V79.3142Z" fill="#F2F2F2"/>
<path d="M207.095 94.9314H206.491V94.3259H206.373V94.9314H205.77V95.0496H206.373V95.6551H206.491V95.0496H207.095V94.9314Z" fill="#F2F2F2"/>
<path d="M21.8548 108.223H21.251V107.617H21.1331V108.223H20.5293V108.341H21.1331V108.946H21.251V108.341H21.8548V108.223Z" fill="#F2F2F2"/>
<path d="M48.3646 35.7852H47.7608V35.1797H47.6428V35.7852H47.0391V35.9035H47.6428V36.5089H47.7608V35.9035H48.3646V35.7852Z" fill="#F2F2F2"/>
<path d="M151.425 97.5896H150.821V96.9841H150.703V97.5896H150.1V97.7079H150.703V98.3133H150.821V97.7079H151.425V97.5896Z" fill="#F2F2F2"/>
<path d="M88.1302 14.519H87.5264V13.9136H87.4085V14.519H86.8047V14.6373H87.4085V15.2427H87.5264V14.6373H88.1302V14.519Z" fill="#F2F2F2"/>
<path d="M88.3636 62.3604L87.6113 62.4767C87.8466 63.9853 88.0322 65.5271 88.168 67.0522L88.9269 66.9858C88.791 65.4407 88.6021 63.8856 88.3636 62.3604Z" fill="#E6E6E6"/>
<path d="M86.3052 53.2757L85.5762 53.4983C86.0169 54.9604 86.4113 56.459 86.746 57.9509L87.4916 57.7815C87.1502 56.2729 86.7493 54.7577 86.3052 53.2757Z" fill="#E6E6E6"/>
<path d="M83.0207 44.5634L82.3281 44.8823C82.9644 46.2746 83.5609 47.7034 84.101 49.1322L84.8135 48.8631C84.2667 47.4176 83.6669 45.9689 83.0207 44.5634Z" fill="#E6E6E6"/>
<path d="M78.5804 36.3958L77.9375 36.8045C78.756 38.0938 79.5414 39.4295 80.2704 40.7686L80.9398 40.4031C80.2042 39.0474 79.4088 37.6984 78.5804 36.3958Z" fill="#E6E6E6"/>
<path d="M73.0604 28.9096L72.4805 29.4047C73.468 30.5677 74.429 31.7838 75.337 33.0133L75.9467 32.5581C75.0321 31.3153 74.0611 30.0859 73.0604 28.9096Z" fill="#E6E6E6"/>
<path d="M66.5715 22.244L66.0645 22.8122C67.2044 23.8323 68.3211 24.9055 69.3849 25.9987L69.9316 25.4638C68.8547 24.3573 67.7247 23.274 66.5715 22.244Z" fill="#E6E6E6"/>
<path d="M59.24 16.5221L58.8125 17.1534C60.0784 18.0074 61.331 18.9178 62.5339 19.8582L63.0045 19.2568C61.785 18.3065 60.5191 17.386 59.24 16.5221Z" fill="#E6E6E6"/>
<path d="M52.5703 12.548V13.412C53.3623 13.8273 54.1477 14.2626 54.9165 14.7079L55.2976 14.0466C54.4028 13.5283 53.4938 13.0287 52.5703 12.548Z" fill="#E6E6E6"/>
<path d="M88.4141 71.7659L89.1758 71.752C89.1898 72.5233 89.1909 73.2986 89.1789 74.0568L88.4172 74.0448C88.4288 73.2953 88.4278 72.5286 88.4141 71.7659Z" fill="#E6E6E6"/>
<path d="M43.6272 127.82L42.875 127.936C43.1103 129.445 43.2959 130.987 43.4317 132.512L44.1906 132.445C44.0547 130.9 43.8658 129.345 43.6272 127.82Z" fill="#E6E6E6"/>
<path d="M41.5689 118.735L40.8398 118.958C41.2806 120.42 41.6749 121.919 42.0096 123.411L42.7552 123.241C42.4139 121.733 42.013 120.217 41.5689 118.735Z" fill="#E6E6E6"/>
<path d="M38.2844 110.023L37.5918 110.342C38.2281 111.734 38.8245 113.163 39.3647 114.592L40.0772 114.323C39.5304 112.877 38.9306 111.428 38.2844 110.023Z" fill="#E6E6E6"/>
<path d="M33.8441 101.855L33.2012 102.264C34.0197 103.553 34.8051 104.889 35.5341 106.228L36.2035 105.863C35.4678 104.507 34.6725 103.158 33.8441 101.855Z" fill="#E6E6E6"/>
<path d="M28.3241 94.3692L27.7441 94.8643C28.7317 96.0273 29.6927 97.2434 30.6006 98.4729L31.2104 98.0177C30.2957 96.7749 29.3248 95.5455 28.3241 94.3692Z" fill="#E6E6E6"/>
<path d="M21.8351 87.7036L21.3281 88.2718C22.4681 89.2919 23.5848 90.3651 24.6486 91.4583L25.1953 90.9234C24.1184 89.8169 22.9883 88.7336 21.8351 87.7036Z" fill="#E6E6E6"/>
<path d="M14.5037 81.9818L14.0762 82.6131C15.342 83.467 16.5947 84.3775 17.7976 85.3178L18.2681 84.7164C17.0487 83.7661 15.7828 82.8457 14.5037 81.9818Z" fill="#E6E6E6"/>
<path d="M7.83398 78.0076V78.8715C8.62599 79.2869 9.41136 79.7221 10.1802 80.1674L10.5613 79.5062C9.66651 78.9878 8.75742 78.4883 7.83398 78.0076Z" fill="#E6E6E6"/>
<path d="M43.6777 137.225L44.4395 137.212C44.4534 137.983 44.4545 138.758 44.4426 139.516L43.6809 139.504C43.6925 138.755 43.6915 137.988 43.6777 137.225Z" fill="#E6E6E6"/>
<path d="M196.725 94.924L195.973 95.0403C196.208 96.5489 196.394 98.0906 196.529 99.6158L197.288 99.5493C197.152 98.0043 196.963 96.4492 196.725 94.924Z" fill="#E6E6E6"/>
<path d="M194.667 85.8395L193.938 86.0621C194.378 87.5242 194.773 89.0227 195.107 90.5147L195.853 90.3452C195.512 88.8367 195.111 87.3215 194.667 85.8395Z" fill="#E6E6E6"/>
<path d="M191.382 77.127L190.689 77.4459C191.326 78.8382 191.922 80.267 192.462 81.6958L193.175 81.4267C192.628 79.9812 192.028 78.5325 191.382 77.127Z" fill="#E6E6E6"/>
<path d="M186.942 68.9595L186.299 69.3682C187.117 70.6575 187.903 71.9933 188.632 73.3324L189.301 72.9669C188.565 71.6112 187.77 70.2621 186.942 68.9595Z" fill="#E6E6E6"/>
<path d="M181.422 61.4732L180.842 61.9683C181.829 63.1313 182.79 64.3474 183.698 65.5769L184.308 65.1217C183.393 63.8789 182.422 62.6495 181.422 61.4732Z" fill="#E6E6E6"/>
<path d="M174.933 54.8076L174.426 55.3758C175.566 56.3959 176.683 57.4692 177.746 58.5624L178.293 58.0274C177.216 56.9209 176.086 55.8377 174.933 54.8076Z" fill="#E6E6E6"/>
<path d="M167.601 49.0857L167.174 49.717C168.44 50.571 169.692 51.4814 170.895 52.4218L171.366 51.8203C170.146 50.87 168.88 49.9496 167.601 49.0857Z" fill="#E6E6E6"/>
<path d="M160.932 45.1116V45.9755C161.724 46.3909 162.509 46.8261 163.278 47.2714L163.659 46.6102C162.764 46.0918 161.855 45.5923 160.932 45.1116Z" fill="#E6E6E6"/>
<path d="M196.775 104.329L197.537 104.316C197.551 105.087 197.552 105.862 197.54 106.62L196.779 106.608C196.79 105.859 196.789 105.092 196.775 104.329Z" fill="#E6E6E6"/>
<path d="M49.4736 66.4215H48.9119V65.858H48.8023V66.4215H48.2402V66.5312H48.8023V67.0947H48.9119V66.5312H49.4736V66.4215Z" fill="#F2F2F2"/>
<path d="M42.9971 100.433H42.4354V99.8694H42.3257V100.433H41.7637V100.543H42.3257V101.106H42.4354V100.543H42.9971V100.433Z" fill="#F2F2F2"/>
<path d="M23.9971 130.241H23.4351V129.678H23.3254V130.241H22.7637V130.351H23.3254V130.914H23.4351V130.351H23.9971V130.241Z" fill="#F2F2F2"/>
<path d="M76.8546 92.4353C71.4221 84.3382 69.0634 74.5571 70.206 64.8657C71.3487 55.1743 75.9172 46.2144 83.083 39.6108C90.2488 33.0073 99.5374 29.1972 109.264 28.8717C118.991 28.5462 128.513 31.7268 136.102 37.8366C143.69 43.9464 148.845 52.5809 150.629 62.1744C152.414 71.7678 150.711 81.6848 145.829 90.1271C140.947 98.5694 133.209 104.978 124.019 108.19C114.829 111.403 104.795 111.207 95.7373 107.638C95.15 109.739 94.0522 111.662 92.542 113.234C91.0318 114.806 89.1565 115.978 87.0839 116.645C85.0112 117.312 82.806 117.454 80.6655 117.056C78.5251 116.659 76.5163 115.736 74.8189 114.37C73.1216 113.003 71.7887 111.236 70.9395 109.226C70.0903 107.216 69.7514 105.027 69.9531 102.853C70.1548 100.68 70.8908 98.5909 72.0952 96.7727C73.2997 94.9546 74.9349 93.4643 76.8546 92.4353Z" fill="white"/>
<path d="M110.393 46.3323C119.722 46.3323 126.141 51.5213 126.141 58.9804C126.141 63.9199 123.753 67.3376 119.15 70.0568C114.821 72.5765 113.353 74.4225 113.353 77.6157C113.353 77.8745 113.303 78.1308 113.204 78.3699C113.105 78.609 112.96 78.8263 112.778 79.0093C112.595 79.1923 112.379 79.3375 112.14 79.4365C111.902 79.5356 111.646 79.5865 111.388 79.5865H106.618C106.109 79.5865 105.62 79.3882 105.253 79.0334C104.887 78.6786 104.672 78.1949 104.654 77.6844L104.646 77.4411C104.223 72.302 106.014 69.1088 110.517 66.4645C114.722 63.9448 116.488 62.3482 116.488 59.2548C116.488 56.1614 113.503 53.8913 109.796 53.8913C106.978 53.8913 104.748 55.2665 103.726 57.5117C103.366 58.2717 102.797 58.9126 102.086 59.3586C101.375 59.8046 100.551 60.0369 99.7119 60.0282C96.4803 60.0282 94.3454 56.5822 95.8568 53.718C98.2475 49.1871 103.292 46.3323 110.393 46.3323ZM103.85 89.0913C103.85 86.2224 106.238 83.9522 109.174 83.9522C112.134 83.9522 114.523 86.1975 114.523 89.0913C114.523 91.9851 112.134 94.2304 109.174 94.2304C106.213 94.2304 103.85 91.9851 103.85 89.0913Z" fill="#3751FF"/>
</g>
<defs>
<clipPath id="clip0_88_914">
<rect width="366" height="265" fill="white"/>
</clipPath>
</defs>
</svg>
