<svg width="57" height="43" viewBox="0 0 57 43" fill="none" xmlns="http://www.w3.org/2000/svg">
<path d="M51.6593 0.0826416H5.7262C3.02878 0.0826416 0.828125 2.2809 0.828125 4.98072V37.6346C0.828125 40.3252 3.01898 42.5326 5.7262 42.5326H51.6593C54.35 42.5326 56.5574 40.3418 56.5574 37.6346V4.98072C56.5574 2.29004 54.3665 0.0826416 51.6593 0.0826416ZM50.9829 3.34803L28.7966 25.5345L6.41835 3.34803H50.9829ZM4.09351 36.9584V5.64131L19.8195 21.2324L4.09351 36.9584ZM6.40246 39.2673L22.1384 23.5314L27.6522 28.9978C28.2904 29.6307 29.3205 29.6286 29.9561 28.9928L35.3324 23.6166L50.983 39.2673H6.40246ZM53.292 36.9583L37.6413 21.3076L53.292 5.65687V36.9583Z" fill="url(#paint0_linear_88_1003)"/>
<defs>
<linearGradient id="paint0_linear_88_1003" x1="28.6927" y1="0.0826416" x2="28.6927" y2="42.5326" gradientUnits="userSpaceOnUse">
<stop stop-color="#3751FF"/>
<stop offset="1" stop-color="#3751FF"/>
</linearGradient>
</defs>
</svg>
