<svg width="56" height="57" viewBox="0 0 56 57" fill="none" xmlns="http://www.w3.org/2000/svg">
<path d="M40.9713 36.8598L40.9781 36.8621L40.9849 36.8644C44.3145 37.9647 47.8237 38.5229 51.3923 38.5229C53.0294 38.5229 54.364 39.8574 54.3641 41.4946C54.3641 41.4946 54.3641 41.4947 54.3641 41.4947V51.7005C54.3641 53.3377 53.0296 54.6723 51.3923 54.6723C23.957 54.6723 1.63477 32.3502 1.63477 4.91489C1.63477 3.27759 2.9693 1.94305 4.6066 1.94305H14.841C16.4783 1.94305 17.8128 3.27755 17.8127 4.91495V4.91503C17.8127 8.48189 18.3715 11.9853 19.4734 15.3271C19.8153 16.4279 19.5254 17.5803 18.7336 18.371L18.6586 18.4459L18.5949 18.5306L14.0037 24.6335L13.4304 25.3957L13.8773 26.2382C17.8448 33.717 22.5378 38.4067 30.0655 42.425L30.9109 42.8762L31.6757 42.2989L37.9419 37.5686L38.0331 37.4997L38.1128 37.4178C38.3404 37.1842 38.7718 36.9338 39.3474 36.8049C39.9129 36.6782 40.4945 36.6972 40.9713 36.8598Z" stroke="url(#paint0_linear_88_997)" stroke-width="3"/>
<defs>
<linearGradient id="paint0_linear_88_997" x1="27.9995" y1="0.443054" x2="27.9995" y2="56.1723" gradientUnits="userSpaceOnUse">
<stop stop-color="#3751FF"/>
<stop offset="1" stop-color="#3751FF"/>
</linearGradient>
</defs>
</svg>
