<svg width="22" height="28" viewBox="0 0 22 28" fill="none" xmlns="http://www.w3.org/2000/svg">
<path fill-rule="evenodd" clip-rule="evenodd" d="M13.8026 21.4947C16.8373 20.3587 19.0013 17.4294 19.0013 14C19.0013 11.792 18.1039 9.79203 16.6559 8.34403C16.1359 7.82403 16.1359 6.97871 16.6559 6.45871C17.1773 5.93871 18.0213 5.93871 18.5426 6.45871C20.4733 8.38938 21.6679 11.056 21.6679 14C21.6679 18.644 18.6933 22.5987 14.5466 24.0614L15.7613 24.904C16.3653 25.324 16.5159 26.1547 16.0959 26.76C15.6773 27.364 14.8453 27.5147 14.2413 27.0947L10.2413 24.32C9.6386 23.9027 9.48659 23.076 9.90126 22.4707L12.5679 18.58C12.9839 17.972 13.8146 17.8174 14.4213 18.2334C15.0279 18.6494 15.1826 19.48 14.7666 20.0867L13.8026 21.4947ZM7.48659 3.92671L6.26126 3.10937C5.64926 2.70137 5.48259 1.87203 5.89059 1.26003C6.29993 0.648034 7.12793 0.4827 7.73993 0.8907L11.7399 3.55737C12.3533 3.96537 12.5186 4.79338 12.1106 5.40671L9.44393 9.40671C9.0346 10.0187 8.20659 10.184 7.59459 9.77604C6.98259 9.36804 6.81593 8.53871 7.22393 7.92671L8.16393 6.51871C5.14659 7.66404 3.00126 10.5827 3.00126 14C3.00126 16.208 3.89726 18.2067 5.34526 19.656C5.86526 20.176 5.86526 21.02 5.34526 21.5414C4.82526 22.0614 3.97993 22.0614 3.45993 21.5414C1.52926 19.6107 0.334595 16.944 0.334595 14C0.334595 9.34403 3.32393 5.38004 7.48659 3.92671Z" fill="#BFBFBF"/>
</svg>
